<svg width="528" height="154" viewBox="0 0 528 154" fill="none" xmlns="http://www.w3.org/2000/svg">
<path d="M515.647 149.147L465 112.281L522.269 86.8677L515.647 149.147ZM475.738 113.354L511.352 139.304L516.005 95.4579L475.738 113.354Z" fill="#FF00FD"/>
<path d="M521.374 153.442L470.727 116.576L527.995 91.1628L521.374 153.442ZM481.465 117.65L517.079 143.599L521.732 99.7531L481.465 117.65Z" fill="#03FCFE"/>
<path d="M518.51 151.295L467.864 114.428L525.132 89.0153L518.51 151.295ZM478.601 115.502L514.215 141.452L518.868 97.6055L478.601 115.502Z" fill="white"/>
<path d="M46.5121 73.6154C26.2303 73.6154 9.70435 57.0894 9.70435 36.8076C9.70435 16.5258 26.2303 0 46.5121 0C66.7939 0 83.3198 16.5258 83.3198 36.8076C83.3198 57.0894 66.7939 73.6154 46.5121 73.6154ZM46.5121 7.51178C30.2366 7.51178 17.2161 20.5321 17.2161 36.8076C17.2161 53.0831 30.2366 66.1036 46.5121 66.1036C62.7876 66.1036 75.808 53.0831 75.808 36.8076C75.808 20.5321 62.7876 7.51178 46.5121 7.51178Z" fill="#03FCFE"/>
<path d="M37.2475 73.6154C16.9656 73.6154 0.439697 57.0894 0.439697 36.8076C0.439697 16.5258 16.9656 0 37.2475 0C57.5293 0 74.0552 16.5258 74.0552 36.8076C74.0552 57.0894 57.5293 73.6154 37.2475 73.6154ZM37.2475 7.51178C20.9719 7.51178 7.95148 20.5321 7.95148 36.8076C7.95148 53.0831 20.9719 66.1036 37.2475 66.1036C53.523 66.1036 66.5434 53.0831 66.5434 36.8076C66.5434 20.5321 53.523 7.51178 37.2475 7.51178Z" fill="#FF00FD"/>
<path d="M41.5043 73.6154C21.2225 73.6154 4.69653 57.0894 4.69653 36.8076C4.69653 16.5258 21.2225 0 41.5043 0C61.7861 0 78.312 16.5258 78.312 36.8076C78.312 57.0894 61.7861 73.6154 41.5043 73.6154ZM41.5043 7.51178C25.2288 7.51178 12.2083 20.5321 12.2083 36.8076C12.2083 53.0831 25.2288 66.1036 41.5043 66.1036C57.7798 66.1036 70.8002 53.0831 70.8002 36.8076C70.8002 20.5321 57.7798 7.51178 41.5043 7.51178Z" fill="white"/>
</svg>


