<svg width="58" height="72" viewBox="0 0 58 72" fill="none" xmlns="http://www.w3.org/2000/svg">
<path d="M57.4839 50.7639C57.4038 46.9506 56.2332 43.2015 54.0997 39.9216L38.3761 15.751H19.1126L3.38902 39.9218C1.2549 43.2014 0.0848978 46.9505 0.00446034 50.7639C-0.070774 54.3521 0.807007 57.9392 2.54232 61.1395C4.27819 64.3392 6.80719 67.0309 9.85538 68.9244C13.0955 70.9365 16.8764 72 20.7897 72H36.699C40.6118 72 44.3933 70.9365 47.6332 68.9244C50.6812 67.0309 53.2103 64.3392 54.9462 61.1394C56.6815 57.9392 57.5593 54.3516 57.4839 50.7641V50.7639ZM30.8538 25.53V29.8284C34.6341 30.3487 37.5554 33.5978 37.5554 37.5183H33.3367C33.3367 35.5634 31.7463 33.973 29.7914 33.973H27.6973C25.7424 33.973 24.1515 35.5634 24.1515 37.5182C24.1515 39.473 25.7424 41.0642 27.6973 41.0642H29.7912C34.0721 41.0642 37.5554 44.5475 37.5554 48.8288C37.5554 52.7491 34.6335 55.999 30.8536 56.5186V60.8171H26.6349V56.5186C22.8546 55.999 19.9327 52.7498 19.9327 48.8288H24.1515C24.1515 50.7838 25.7424 52.3745 27.6973 52.3745H29.7912C31.7463 52.3745 33.3367 50.7838 33.3367 48.8288C33.3367 46.8737 31.7463 45.2829 29.7914 45.2829H27.6973C23.416 45.2829 19.9327 41.7997 19.9327 37.5183C19.9327 33.5978 22.8546 30.3486 26.6349 29.8284V25.53H30.8538ZM37.5059 11.5324L41.7279 0H15.7601L19.9828 11.5324H37.5059Z" fill="black"/>
</svg>
