<svg width="880" height="360" viewBox="0 0 880 360" fill="none" xmlns="http://www.w3.org/2000/svg">
<path d="M710.681 96.1397C702.091 96.1397 695.111 89.1601 695.111 80.5698C695.111 71.9796 702.091 65 710.681 65C719.271 65 726.251 71.9796 726.251 80.5698C726.251 89.1601 719.271 96.1397 710.681 96.1397ZM710.681 68.0424C703.881 68.0424 698.154 73.5903 698.154 80.5698C698.154 87.5494 703.702 93.0973 710.681 93.0973C717.661 93.0973 723.209 87.5494 723.209 80.5698C723.209 73.5903 717.661 68.0424 710.681 68.0424Z" fill="#03FCFE"/>
<path d="M706.744 96.1397C698.154 96.1397 691.174 89.1601 691.174 80.5698C691.174 71.9796 698.154 65 706.744 65C715.334 65 722.314 71.9796 722.314 80.5698C722.314 89.1601 715.334 96.1397 706.744 96.1397ZM706.744 68.0424C699.944 68.0424 694.217 73.5903 694.217 80.5698C694.217 87.5494 699.765 93.0973 706.744 93.0973C713.724 93.0973 719.272 87.5494 719.272 80.5698C719.272 73.5903 713.724 68.0424 706.744 68.0424Z" fill="#FF00FD"/>
<path d="M708.534 96.1397C699.943 96.1397 692.964 89.1601 692.964 80.5698C692.964 71.9796 699.943 65 708.534 65C717.124 65 724.104 71.9796 724.104 80.5698C724.104 89.1601 717.124 96.1397 708.534 96.1397ZM708.534 68.0424C701.733 68.0424 696.006 73.5903 696.006 80.5698C696.006 87.5494 701.554 93.0973 708.534 93.0973C715.513 93.0973 721.061 87.5494 721.061 80.5698C721.061 73.5903 715.513 68.0424 708.534 68.0424Z" fill="white"/>
<path d="M879.562 341.954L863.992 336.227L869.719 320.657L864.708 318.868L858.981 334.438L843.233 328.711L841.443 333.722L857.013 339.449L851.286 355.018L856.297 356.987L862.024 341.238L877.773 346.965L879.562 341.954Z" fill="#03FCFE"/>
<path d="M873.119 344.996L857.371 339.27L863.276 323.7L858.086 321.731L852.36 337.48L836.79 331.574L835 336.764L850.57 342.491L844.843 358.061L849.854 359.85L855.581 344.281L871.151 350.007L873.119 344.996Z" fill="#FF00FD"/>
<path d="M876.341 343.565L860.771 337.838L866.498 322.089L861.487 320.299L855.581 335.869L840.011 330.142L838.221 335.153L853.791 340.88L848.064 356.629L853.075 358.419L858.802 342.849L874.372 348.576L876.341 343.565Z" fill="white"/>
<path d="M664.765 232.54L662 237.142L701.578 260.922L704.343 256.32L664.765 232.54Z" fill="#FF00FD"/>
<path d="M667.799 227.868L665.034 232.47L704.612 256.25L707.377 251.648L667.799 227.868Z" fill="#03FCFE"/>
<path d="M666.372 230.114L663.607 234.716L703.184 258.497L705.95 253.895L666.372 230.114Z" fill="white"/>
<path d="M111.929 4.47446L74.2458 31.1557L77.3483 35.5375L115.032 8.85624L111.929 4.47446Z" fill="#FF00FD"/>
<path d="M108.683 6.55761e-06L71 26.6813L74.1025 31.0631L111.786 4.38179L108.683 6.55761e-06Z" fill="#03FCFE"/>
<path d="M110.344 2.07474L72.6606 28.756L75.7631 33.1378L113.446 6.45652L110.344 2.07474Z" fill="white"/>
<path d="M182.194 207.692L126.188 201.331L159.446 156.19L181.972 207.633L182.194 207.692ZM135.024 197.524L174.417 202.074L158.55 165.896L135.246 197.583L135.024 197.524Z" fill="#FF00FD"/>
<path d="M188.619 208.466L132.612 202.105L165.87 156.964L188.397 208.407L188.619 208.466ZM141.449 198.298L180.841 202.848L164.974 166.67L141.67 198.357L141.449 198.298Z" fill="#03FCFE"/>
<path d="M185.406 208.079L129.399 201.718L162.658 156.577L185.184 208.02L185.406 208.079ZM138.236 197.911L177.629 202.461L161.762 166.283L138.458 197.97L138.236 197.911Z" fill="white"/>
<path d="M50.4392 320.202L32.7526 313.652L39.3032 295.965L33.4077 294L26.8571 311.687L9.49797 305.136L7.20532 310.704L24.8919 317.255L18.3413 334.941L24.2368 336.906L30.4598 319.22L48.1465 325.77L50.4392 320.202Z" fill="#03FCFE"/>
<path d="M42.9064 323.478L25.2198 316.927L31.7704 299.568L26.2024 297.275L19.6518 314.962L1.9652 308.411L0 314.307L17.6866 320.53L11.136 338.217L16.704 340.509L23.2546 322.823L40.9412 329.373L42.9064 323.478Z" fill="#FF00FD"/>
<path d="M46.5094 321.84L29.1503 315.289L35.3733 297.603L29.8054 295.638L23.2548 313.324L5.56823 306.774L3.60303 312.342L21.2896 318.892L14.739 336.579L20.3071 338.872L26.8577 321.185L44.5442 327.408L46.5094 321.84Z" fill="white"/>
</svg>
