<svg width="74" height="73" viewBox="0 0 74 73" fill="none" xmlns="http://www.w3.org/2000/svg">
<path d="M51.9497 31.2241H22.0509C-4.00448 31.4096 -9.22351 70.2807 18.6582 72.1494C24.1849 72.428 29.6147 70.6212 33.8726 67.0867C34.7531 66.422 35.8069 66.0258 36.9073 65.9459C38.0076 65.866 39.1077 66.1056 40.075 66.6361C44.6022 69.5147 49.8186 72.3667 55.3425 72.1494C83.2135 70.286 78.0157 31.4096 51.9497 31.2241ZM61.2533 54.6024H56.6714C56.5377 54.6024 56.4292 54.7108 56.4292 54.8446V59.4C56.4292 60.1029 56.15 60.7771 55.6529 61.2742C55.1558 61.7713 54.4816 62.0506 53.7786 62.0506C53.0756 62.0506 52.4014 61.7713 51.9044 61.2742C51.4073 60.7771 51.128 60.1029 51.128 59.4V54.8446C51.128 54.7108 51.0196 54.6024 50.8858 54.6024H46.3304C45.6274 54.6024 44.9533 54.3231 44.4562 53.826C43.9591 53.329 43.6798 52.6548 43.6798 51.9518C43.6798 51.2488 43.9591 50.5746 44.4562 50.0775C44.9533 49.5804 45.6274 49.3012 46.3304 49.3012H50.8858C51.0196 49.3012 51.128 49.1927 51.128 49.059V44.4771C51.128 43.7741 51.4073 43.0999 51.9044 42.6028C52.4014 42.1057 53.0756 41.8265 53.7786 41.8265C54.4816 41.8265 55.1558 42.1057 55.6529 42.6028C56.15 43.0999 56.4292 43.7741 56.4292 44.4771V49.059C56.4292 49.1927 56.5377 49.3012 56.6714 49.3012H61.2533C61.9563 49.3012 62.6305 49.5804 63.1276 50.0775C63.6247 50.5746 63.9039 51.2488 63.9039 51.9518C63.9039 52.6548 63.6247 53.329 63.1276 53.826C62.6305 54.3231 61.9563 54.6024 61.2533 54.6024ZM28.3328 54.6024H23.751C23.6172 54.6024 23.5088 54.7108 23.5088 54.8446V59.4C23.5088 60.1029 23.2295 60.7771 22.7324 61.2742C22.2353 61.7713 21.5611 62.0506 20.8582 62.0506C20.1552 62.0506 19.481 61.7713 18.9839 61.2742C18.4868 60.7771 18.2076 60.1029 18.2076 59.4V54.8446C18.2076 54.7108 18.0991 54.6024 17.9653 54.6024H13.41C12.707 54.6024 12.0328 54.3231 11.5357 53.826C11.0386 53.329 10.7594 52.6548 10.7594 51.9518C10.7594 51.2488 11.0386 50.5746 11.5357 50.0775C12.0328 49.5804 12.707 49.3012 13.41 49.3012H17.9653C18.0991 49.3012 18.2076 49.1927 18.2076 49.059V44.4771C18.2076 43.7741 18.4868 43.0999 18.9839 42.6028C19.481 42.1057 20.1552 41.8265 20.8582 41.8265C21.5611 41.8265 22.2353 42.1057 22.7324 42.6028C23.2295 43.0999 23.5088 43.7741 23.5088 44.4771V49.059C23.5088 49.1927 23.6172 49.3012 23.751 49.3012H28.3328C29.0358 49.3012 29.71 49.5804 30.2071 50.0775C30.7042 50.5746 30.9834 51.2488 30.9834 51.9518C30.9834 52.6548 30.7042 53.329 30.2071 53.826C29.71 54.3231 29.0358 54.6024 28.3328 54.6024ZM34.2357 25.7877C34.2357 25.7892 34.2369 25.7903 34.2384 25.7903C34.9404 25.7896 35.6135 25.5105 36.11 25.014C36.6071 24.5169 36.8863 23.8427 36.8863 23.1397V16.6193C36.8877 15.4577 37.3498 14.344 38.1712 13.5227C38.9926 12.7013 40.1062 12.2392 41.2678 12.2378H45.2543C47.7961 12.235 50.233 11.224 52.0304 9.42669C53.8277 7.62935 54.8387 5.19243 54.8415 2.6506C54.8415 1.94762 54.5622 1.27343 54.0652 0.776343C53.5681 0.279259 52.8939 0 52.1909 0C51.4879 0 50.8137 0.279259 50.3166 0.776343C49.8196 1.27343 49.5403 1.94762 49.5403 2.6506C49.5389 3.78689 49.0869 4.87625 48.2834 5.67973C47.4799 6.48321 46.3906 6.93522 45.2543 6.93662H41.2678C38.7006 6.93943 36.2395 7.96046 34.4242 9.7757C32.609 11.5909 31.5879 14.0521 31.5851 16.6193V23.1344C31.5851 23.8374 31.8644 24.5116 32.3615 25.0087C32.8579 25.5052 33.5311 25.7843 34.2331 25.785C34.2345 25.785 34.2357 25.7862 34.2357 25.7877V25.7877Z" fill="black"/>
</svg>
