<svg width="47" height="72" viewBox="0 0 47 72" fill="none" xmlns="http://www.w3.org/2000/svg">
<path fill-rule="evenodd" clip-rule="evenodd" d="M0.488403 23.1864C0.488403 10.3814 10.8698 0 23.6748 0C36.4799 0 46.8613 10.3814 46.8613 23.1864C46.8613 35.9915 36.4799 46.3729 23.6748 46.3729C10.8698 46.3729 0.488403 35.9915 0.488403 23.1864ZM17.4377 34.9786L23.6748 30.3157L29.9144 34.9798C31.7157 36.2306 34.0538 34.416 33.2911 32.361L31.1909 25.4209L37.4805 20.7848C39.0755 19.6121 38.2457 17.0847 36.2663 17.0847H28.9357L25.9593 10.1483C25.6176 9.21356 24.728 8.54237 23.6748 8.54237C22.6217 8.54237 21.7321 9.21356 21.3904 10.1483L18.4152 17.0847H11.0846C9.10522 17.0847 8.27539 19.6121 9.87037 20.7836L16.16 25.4197L14.061 32.3597C13.2971 34.4148 15.6353 36.2294 17.4377 34.9786ZM23.6748 51.2542H23.6968C29.3535 51.2576 34.878 49.5435 39.5393 46.3387V72L23.6748 63.4576L7.81044 72V46.3399C12.4781 49.5484 18.0108 51.2623 23.6748 51.2542Z" fill="black"/>
</svg>
