<svg width="290" height="95" viewBox="0 0 290 95" fill="none" xmlns="http://www.w3.org/2000/svg">
<path fill-rule="evenodd" clip-rule="evenodd" d="M58.3695 1.13339H37.4018C34.898 1.13339 32.8683 3.16313 32.8683 5.66695V88.971C32.8683 91.4748 34.898 93.5046 37.4018 93.5046H58.3695C60.8733 93.5046 62.9031 91.4748 62.9031 88.971V5.66694C62.9031 3.16313 60.8733 1.13339 58.3695 1.13339ZM37.4018 0C34.2721 0 31.7349 2.53718 31.7349 5.66695V31.1682H5.66695C2.53718 31.1682 1.05333e-06 33.7054 9.16529e-07 36.8351L0 57.8028C-1.36806e-07 60.9326 2.53718 63.4698 5.66695 63.4698H31.7349L31.7349 88.971C31.7349 92.1008 34.2721 94.638 37.4018 94.638H58.3695C61.4993 94.638 64.0365 92.1008 64.0365 88.971V5.66694C64.0365 2.53718 61.4993 0 58.3695 0H37.4018ZM64.0365 31.1681L64.0365 63.4697L90.1045 63.4697C93.2342 63.4697 95.7714 60.9325 95.7714 57.8028V36.8351C95.7714 33.7053 93.2342 31.1681 90.1045 31.1681L64.0365 31.1681Z" fill="url(#paint0_linear_9_604)"/>
<path d="M11.2221 47.6204C10.9572 47.4675 10.9572 47.0852 11.2221 46.9323L18.9688 42.4597C19.2337 42.3068 19.5647 42.4979 19.5647 42.8038L19.5647 51.7489C19.5647 52.0547 19.2337 52.2459 18.9688 52.093L11.2221 47.6204Z" fill="url(#paint1_linear_9_604)"/>
<path d="M47.4671 10.2327C47.62 9.96408 48.0023 9.96408 48.1552 10.2327L52.6278 18.0901C52.7807 18.3588 52.5895 18.6945 52.2837 18.6945L43.3385 18.6945C43.0327 18.6945 42.8416 18.3587 42.9945 18.0901L47.4671 10.2327Z" fill="url(#paint2_linear_9_604)"/>
<path d="M10.6552 47.6204C10.3903 47.4674 10.3903 47.0852 10.6552 46.9323L18.4019 42.4597C18.6668 42.3068 18.9978 42.4979 18.9978 42.8037L18.9978 51.7489C18.9978 52.0547 18.6668 52.2459 18.4019 52.0929L10.6552 47.6204Z" fill="#09050D"/>
<path d="M85.1161 47.0176C85.3809 47.1705 85.3809 47.5527 85.1161 47.7057L77.3693 52.1782C77.1045 52.3312 76.7734 52.14 76.7734 51.8342L76.7734 42.889C76.7734 42.5832 77.1045 42.3921 77.3693 42.545L85.1161 47.0176Z" fill="#09050D"/>
<path d="M48.3042 83.8656C48.1513 84.1305 47.769 84.1305 47.6161 83.8656L43.1435 76.1189C42.9906 75.854 43.1817 75.523 43.4875 75.523L52.4327 75.523C52.7385 75.523 52.9297 75.854 52.7767 76.1189L48.3042 83.8656Z" fill="url(#paint3_linear_9_604)"/>
<path d="M120.527 20.9233C120.018 20.9233 119.514 20.8057 119.014 20.5704V19.4236C119.468 19.663 119.934 19.7828 120.413 19.7828C120.947 19.7828 121.367 19.6336 121.674 19.3354C121.984 19.0329 122.14 18.6275 122.14 18.1192V11.862H123.312V18.1822C123.312 19.0098 123.056 19.6735 122.543 20.1734C122.035 20.6734 121.363 20.9233 120.527 20.9233Z" fill="white"/>
<path d="M130.577 20.9233C129.921 20.9233 129.325 20.7742 128.787 20.4759C128.249 20.1734 127.827 19.7597 127.52 19.2345C127.218 18.7052 127.067 18.1192 127.067 17.4765C127.067 16.8337 127.218 16.2498 127.52 15.7247C127.827 15.1954 128.249 14.7816 128.787 14.4833C129.325 14.1809 129.921 14.0296 130.577 14.0296C131.568 14.0296 132.398 14.3594 133.066 15.0189C133.738 15.6785 134.074 16.4977 134.074 17.4765C134.074 18.4553 133.738 19.2744 133.066 19.934C132.398 20.5935 131.568 20.9233 130.577 20.9233ZM130.577 19.8521C131.249 19.8521 131.808 19.6252 132.253 19.1715C132.702 18.7178 132.927 18.1528 132.927 17.4765C132.927 16.8001 132.702 16.2351 132.253 15.7814C131.808 15.3277 131.249 15.1008 130.577 15.1008C129.9 15.1008 129.337 15.3277 128.888 15.7814C128.438 16.2351 128.214 16.8001 128.214 17.4765C128.214 18.1528 128.438 18.7178 128.888 19.1715C129.337 19.6252 129.9 19.8521 130.577 19.8521Z" fill="white"/>
<path d="M141.276 14.08H141.496V15.2269H141.276C140.582 15.2269 140.034 15.4306 139.631 15.8381C139.232 16.2414 139.032 16.7875 139.032 17.4765V20.7658H137.923V14.1872H139.032V15.3214C139.549 14.4938 140.297 14.08 141.276 14.08Z" fill="white"/>
<path d="M148.566 14.0296C149.368 14.0296 150.013 14.2733 150.5 14.7606C150.992 15.2479 151.237 15.8948 151.237 16.7014V20.7658H150.128V17.048C150.128 16.4598 149.954 15.9893 149.605 15.6365C149.257 15.2794 148.79 15.1008 148.206 15.1008C147.597 15.1008 147.11 15.2815 146.744 15.6428C146.379 16.004 146.196 16.4808 146.196 17.0732V20.7658H145.087V14.1872H146.196V15.1891C146.73 14.4161 147.519 14.0296 148.566 14.0296Z" fill="white"/>
<path d="M160.871 14.1872H161.98V20.7658H160.871V19.5811C160.59 20.0012 160.226 20.331 159.781 20.5704C159.34 20.8057 158.851 20.9233 158.313 20.9233C157.695 20.9233 157.135 20.7742 156.63 20.4759C156.126 20.1734 155.731 19.7597 155.446 19.2345C155.164 18.7052 155.024 18.1192 155.024 17.4765C155.024 16.8337 155.164 16.2498 155.446 15.7247C155.731 15.1954 156.126 14.7816 156.63 14.4833C157.135 14.1809 157.695 14.0296 158.313 14.0296C158.851 14.0296 159.34 14.1493 159.781 14.3888C160.226 14.624 160.59 14.9517 160.871 15.3718V14.1872ZM158.521 19.8521C159.193 19.8521 159.752 19.6252 160.197 19.1715C160.647 18.7178 160.871 18.1528 160.871 17.4765C160.871 16.8001 160.647 16.2351 160.197 15.7814C159.752 15.3277 159.193 15.1008 158.521 15.1008C157.845 15.1008 157.282 15.3277 156.832 15.7814C156.383 16.2351 156.158 16.8001 156.158 17.4765C156.158 18.1528 156.383 18.7178 156.832 19.1715C157.282 19.6252 157.845 19.8521 158.521 19.8521Z" fill="white"/>
<path d="M171.703 11.4713H172.812V20.7658H171.703V19.5811C171.421 20.0012 171.058 20.331 170.612 20.5704C170.171 20.8057 169.682 20.9233 169.144 20.9233C168.527 20.9233 167.966 20.7742 167.462 20.4759C166.958 20.1734 166.563 19.7597 166.277 19.2345C165.996 18.7052 165.855 18.1192 165.855 17.4765C165.855 16.8337 165.996 16.2498 166.277 15.7247C166.563 15.1954 166.958 14.7816 167.462 14.4833C167.966 14.1809 168.527 14.0296 169.144 14.0296C169.682 14.0296 170.171 14.1493 170.612 14.3888C171.058 14.624 171.421 14.9517 171.703 15.3718V11.4713ZM169.352 19.8521C170.024 19.8521 170.583 19.6252 171.028 19.1715C171.478 18.7178 171.703 18.1528 171.703 17.4765C171.703 16.8001 171.478 16.2351 171.028 15.7814C170.583 15.3277 170.024 15.1008 169.352 15.1008C168.676 15.1008 168.113 15.3277 167.663 15.7814C167.214 16.2351 166.989 16.8001 166.989 17.4765C166.989 18.1528 167.214 18.7178 167.663 19.1715C168.113 19.6252 168.676 19.8521 169.352 19.8521Z" fill="white"/>
<path d="M182.534 14.1872H183.643V20.7658H182.534V19.5811C182.252 20.0012 181.889 20.331 181.444 20.5704C181.003 20.8057 180.513 20.9233 179.975 20.9233C179.358 20.9233 178.797 20.7742 178.293 20.4759C177.789 20.1734 177.394 19.7597 177.108 19.2345C176.827 18.7052 176.686 18.1192 176.686 17.4765C176.686 16.8337 176.827 16.2498 177.108 15.7247C177.394 15.1954 177.789 14.7816 178.293 14.4833C178.797 14.1809 179.358 14.0296 179.975 14.0296C180.513 14.0296 181.003 14.1493 181.444 14.3888C181.889 14.624 182.252 14.9517 182.534 15.3718V14.1872ZM180.183 19.8521C180.856 19.8521 181.414 19.6252 181.86 19.1715C182.309 18.7178 182.534 18.1528 182.534 17.4765C182.534 16.8001 182.309 16.2351 181.86 15.7814C181.414 15.3277 180.856 15.1008 180.183 15.1008C179.507 15.1008 178.944 15.3277 178.495 15.7814C178.045 16.2351 177.82 16.8001 177.82 17.4765C177.82 18.1528 178.045 18.7178 178.495 19.1715C178.944 19.6252 179.507 19.8521 180.183 19.8521Z" fill="white"/>
<path d="M198.941 11.4713H200.05V20.7658H198.941V19.5811C198.66 20.0012 198.296 20.331 197.851 20.5704C197.41 20.8057 196.92 20.9233 196.383 20.9233C195.765 20.9233 195.204 20.7742 194.7 20.4759C194.196 20.1734 193.801 19.7597 193.516 19.2345C193.234 18.7052 193.093 18.1192 193.093 17.4765C193.093 16.8337 193.234 16.2498 193.516 15.7247C193.801 15.1954 194.196 14.7816 194.7 14.4833C195.204 14.1809 195.765 14.0296 196.383 14.0296C196.92 14.0296 197.41 14.1493 197.851 14.3888C198.296 14.624 198.66 14.9517 198.941 15.3718V11.4713ZM196.591 19.8521C197.263 19.8521 197.822 19.6252 198.267 19.1715C198.716 18.7178 198.941 18.1528 198.941 17.4765C198.941 16.8001 198.716 16.2351 198.267 15.7814C197.822 15.3277 197.263 15.1008 196.591 15.1008C195.914 15.1008 195.351 15.3277 194.902 15.7814C194.452 16.2351 194.228 16.8001 194.228 17.4765C194.228 18.1528 194.452 18.7178 194.902 19.1715C195.351 19.6252 195.914 19.8521 196.591 19.8521Z" fill="white"/>
<path d="M207.409 20.9233C206.754 20.9233 206.157 20.7742 205.62 20.4759C205.082 20.1734 204.66 19.7597 204.353 19.2345C204.051 18.7052 203.899 18.1192 203.899 17.4765C203.899 16.8337 204.051 16.2498 204.353 15.7247C204.66 15.1954 205.082 14.7816 205.62 14.4833C206.157 14.1809 206.754 14.0296 207.409 14.0296C208.401 14.0296 209.23 14.3594 209.898 15.0189C210.571 15.6785 210.907 16.4977 210.907 17.4765C210.907 18.4553 210.571 19.2744 209.898 19.934C209.23 20.5935 208.401 20.9233 207.409 20.9233ZM207.409 19.8521C208.081 19.8521 208.64 19.6252 209.086 19.1715C209.535 18.7178 209.76 18.1528 209.76 17.4765C209.76 16.8001 209.535 16.2351 209.086 15.7814C208.64 15.3277 208.081 15.1008 207.409 15.1008C206.733 15.1008 206.17 15.3277 205.721 15.7814C205.271 16.2351 205.046 16.8001 205.046 17.4765C205.046 18.1528 205.271 18.7178 205.721 19.1715C206.17 19.6252 206.733 19.8521 207.409 19.8521Z" fill="white"/>
<path d="M132.521 51.1635C134.451 51.1635 136.053 51.6645 137.327 52.6666C138.614 53.6811 139.418 55.0791 139.74 56.8606L134.636 58.2339C134.562 57.5287 134.247 56.9658 133.69 56.5452C133.133 56.1245 132.422 55.9142 131.556 55.9142H125.209C123.403 55.9142 121.949 55.4379 120.848 54.4853C119.759 53.5327 119.215 52.2831 119.215 50.7367C119.215 49.7469 119.45 48.8129 119.92 47.9345C120.403 47.0561 121.04 46.3695 121.832 45.8746C120.112 44.2663 119.252 42.2559 119.252 39.8434C119.252 37.4062 120.112 35.3772 121.832 33.7565C123.564 32.1358 125.729 31.3255 128.327 31.3255C129.824 31.3255 131.234 31.6286 132.558 32.2348C132.843 31.1832 133.424 30.3605 134.302 29.7666C135.193 29.1604 136.269 28.8573 137.531 28.8573H139.127V33.4225H137.754C137.259 33.4225 136.826 33.5462 136.455 33.7936C136.096 34.0411 135.874 34.3813 135.787 34.8143C136.9 36.2618 137.457 37.9381 137.457 39.8434C137.457 42.2682 136.585 44.291 134.841 45.9117C133.096 47.5324 130.925 48.3427 128.327 48.3427C127.263 48.3427 126.199 48.1819 125.135 47.8602C124.479 48.2561 124.151 48.8129 124.151 49.5304C124.151 50.0005 124.343 50.3903 124.727 50.6995C125.11 51.0088 125.605 51.1635 126.211 51.1635H132.521ZM128.327 36.002C127.164 36.002 126.199 36.3669 125.432 37.0969C124.677 37.8268 124.3 38.7423 124.3 39.8434C124.3 40.9445 124.677 41.86 125.432 42.5899C126.199 43.3198 127.164 43.6848 128.327 43.6848C129.477 43.6848 130.436 43.3198 131.203 42.5899C131.97 41.86 132.354 40.9445 132.354 39.8434C132.354 38.7423 131.97 37.8268 131.203 37.0969C130.436 36.3669 129.477 36.002 128.327 36.002Z" fill="white"/>
<path d="M156.107 31.7894H161.044V51.1635H156.107V48.8438C154.413 50.6995 152.309 51.6274 149.798 51.6274C147.101 51.6274 144.849 50.6562 143.043 48.7139C141.237 46.7715 140.334 44.3591 140.334 41.4765C140.334 38.5938 141.237 36.1814 143.043 34.239C144.849 32.2967 147.101 31.3255 149.798 31.3255C152.322 31.3255 154.425 32.2472 156.107 34.0906V31.7894ZM150.744 46.8396C152.278 46.8396 153.553 46.3262 154.567 45.2993C155.594 44.2725 156.107 42.9982 156.107 41.4765C156.107 39.9547 155.594 38.6805 154.567 37.6536C153.553 36.6267 152.278 36.1133 150.744 36.1133C149.223 36.1133 147.955 36.6267 146.94 37.6536C145.926 38.6805 145.418 39.9547 145.418 41.4765C145.418 42.9982 145.926 44.2725 146.94 45.2993C147.955 46.3262 149.223 46.8396 150.744 46.8396Z" fill="white"/>
<path d="M189.103 31.3255C191.293 31.3255 193.043 31.9812 194.355 33.2926C195.678 34.604 196.34 36.3546 196.34 38.5444V51.1635H191.385V40.029C191.385 38.8413 191.039 37.8948 190.346 37.1897C189.666 36.4721 188.75 36.1133 187.6 36.1133C186.387 36.1133 185.404 36.4783 184.649 37.2082C183.894 37.9381 183.517 38.9031 183.517 40.1032V51.1635H178.581V40.029C178.581 38.8537 178.228 37.9072 177.523 37.1897C176.83 36.4721 175.902 36.1133 174.739 36.1133C173.539 36.1133 172.562 36.4845 171.807 37.2268C171.052 37.9567 170.675 38.9155 170.675 40.1032V51.1635H165.739V31.7894H170.675V33.7936C172.135 32.1482 174.046 31.3255 176.409 31.3255C177.758 31.3255 178.952 31.6038 179.991 32.1606C181.043 32.7049 181.878 33.4782 182.496 34.4803C184.092 32.3771 186.294 31.3255 189.103 31.3255Z" fill="white"/>
<path d="M220.038 41.5136C220.038 42.1322 220.001 42.7136 219.927 43.258H204.914C205.26 44.4828 205.922 45.4539 206.899 46.1715C207.877 46.8891 209.064 47.2478 210.462 47.2478C211.588 47.2478 212.621 47.0252 213.562 46.5798C214.502 46.122 215.244 45.5467 215.788 44.8539L219.092 47.7489C218.065 48.9737 216.791 49.9263 215.269 50.6068C213.76 51.2872 212.108 51.6274 210.314 51.6274C208.285 51.6274 206.448 51.182 204.802 50.2913C203.157 49.4005 201.87 48.1757 200.942 46.6169C200.015 45.0457 199.551 43.3075 199.551 41.4022C199.551 39.5217 199.996 37.8144 200.887 36.2803C201.79 34.7339 203.027 33.5215 204.598 32.6431C206.182 31.7647 207.932 31.3255 209.85 31.3255C212.757 31.3255 215.182 32.2967 217.125 34.239C219.067 36.169 220.038 38.5938 220.038 41.5136ZM212.949 36.7443C212.058 36.0144 211.013 35.6494 209.813 35.6494C208.613 35.6494 207.568 36.0144 206.677 36.7443C205.786 37.4618 205.186 38.4268 204.877 39.6393H214.768C214.459 38.4268 213.852 37.4618 212.949 36.7443Z" fill="white"/>
<path d="M234.012 31.4739H234.847V36.5773H234.012C232.255 36.5773 230.882 37.0598 229.892 38.0248C228.915 38.9897 228.426 40.3011 228.426 41.9589V51.1635H223.49V31.7894H228.426V34.2947C229.911 32.4142 231.773 31.4739 234.012 31.4739Z" fill="white"/>
<path d="M261.069 23.7911H266.005V51.1635H261.069V48.8438C259.374 50.6995 257.271 51.6274 254.759 51.6274C252.062 51.6274 249.811 50.6562 248.004 48.7139C246.198 46.7715 245.295 44.3591 245.295 41.4765C245.295 38.5938 246.198 36.1814 248.004 34.239C249.811 32.2967 252.062 31.3255 254.759 31.3255C257.283 31.3255 259.386 32.2472 261.069 34.0906V23.7911ZM255.706 46.8396C257.24 46.8396 258.514 46.3262 259.529 45.2993C260.555 44.2725 261.069 42.9982 261.069 41.4765C261.069 39.9547 260.555 38.6805 259.529 37.6536C258.514 36.6267 257.24 36.1133 255.706 36.1133C254.184 36.1133 252.916 36.6267 251.901 37.6536C250.887 38.6805 250.38 39.9547 250.38 41.4765C250.38 42.9982 250.887 44.2725 251.901 45.2993C252.916 46.3262 254.184 46.8396 255.706 46.8396Z" fill="white"/>
<path d="M290 41.5136C290 42.1322 289.963 42.7136 289.889 43.258H274.876C275.222 44.4828 275.884 45.4539 276.861 46.1715C277.839 46.8891 279.026 47.2478 280.424 47.2478C281.55 47.2478 282.583 47.0252 283.523 46.5798C284.464 46.122 285.206 45.5467 285.75 44.8539L289.054 47.7489C288.027 48.9737 286.753 49.9263 285.231 50.6068C283.721 51.2872 282.07 51.6274 280.276 51.6274C278.247 51.6274 276.41 51.182 274.764 50.2913C273.119 49.4005 271.832 48.1757 270.904 46.6169C269.977 45.0457 269.513 43.3075 269.513 41.4022C269.513 39.5217 269.958 37.8144 270.849 36.2803C271.752 34.7339 272.989 33.5215 274.56 32.6431C276.144 31.7647 277.894 31.3255 279.812 31.3255C282.719 31.3255 285.144 32.2967 287.087 34.239C289.029 36.169 290 38.5938 290 41.5136ZM282.911 36.7443C282.02 36.0144 280.975 35.6494 279.775 35.6494C278.575 35.6494 277.529 36.0144 276.639 36.7443C275.748 37.4618 275.148 38.4268 274.839 39.6393H284.73C284.42 38.4268 283.814 37.4618 282.911 36.7443Z" fill="white"/>
<path d="M126.879 82.8376C123.737 82.8376 121.015 81.8478 118.714 79.8684L121.108 76.6023C122.753 78.0374 124.64 78.7549 126.768 78.7549C127.782 78.7549 128.605 78.5941 129.236 78.2724C129.879 77.9508 130.201 77.5054 130.201 76.9363C130.201 76.627 130.108 76.3548 129.923 76.1198C129.749 75.8847 129.465 75.6806 129.069 75.5074C128.673 75.3342 128.29 75.1919 127.918 75.0805C127.56 74.9692 127.052 74.8393 126.397 74.6908C125.951 74.5919 125.599 74.5114 125.339 74.4496C125.079 74.3877 124.72 74.2949 124.263 74.1712C123.817 74.0351 123.452 73.9114 123.168 73.8001C122.895 73.6887 122.568 73.5403 122.184 73.3547C121.801 73.1567 121.485 72.9588 121.238 72.7608C121.003 72.5629 120.749 72.3217 120.477 72.0371C120.217 71.7526 120.007 71.4494 119.846 71.1278C119.697 70.8061 119.574 70.435 119.475 70.0143C119.376 69.5937 119.326 69.1421 119.326 68.6596C119.326 67.3359 119.691 66.2039 120.421 65.2636C121.151 64.3234 122.098 63.6367 123.26 63.2037C124.436 62.7583 125.76 62.5356 127.232 62.5356C130.09 62.5356 132.595 63.3831 134.748 65.078L132.354 68.3813C130.77 67.1936 129.1 66.5997 127.343 66.5997C126.452 66.5997 125.722 66.742 125.153 67.0266C124.584 67.3111 124.3 67.7256 124.3 68.2699C124.3 68.5792 124.386 68.8514 124.559 69.0865C124.733 69.3091 125.017 69.5071 125.413 69.6803C125.809 69.8411 126.193 69.9772 126.564 70.0886C126.935 70.1875 127.448 70.3051 128.104 70.4412C128.673 70.5649 129.131 70.67 129.477 70.7566C129.824 70.8432 130.275 70.9793 130.832 71.1649C131.389 71.3505 131.84 71.536 132.187 71.7216C132.545 71.9072 132.929 72.1608 133.337 72.4825C133.758 72.7918 134.086 73.1258 134.321 73.4846C134.556 73.8434 134.754 74.2826 134.915 74.8022C135.088 75.3218 135.174 75.8847 135.174 76.4909C135.174 77.8147 134.803 78.9652 134.061 79.9426C133.319 80.92 132.329 81.6499 131.092 82.1324C129.855 82.6025 128.45 82.8376 126.879 82.8376Z" fill="white"/>
<path d="M147.237 82.8376C144.503 82.8376 142.313 82.0953 140.667 80.6107C139.022 79.1137 138.199 77.1281 138.199 74.6537V62.9996H143.136V73.9671C143.136 75.2043 143.507 76.194 144.249 76.9363C145.004 77.6786 146 78.0497 147.237 78.0497C148.474 78.0497 149.464 77.6786 150.206 76.9363C150.961 76.194 151.338 75.2043 151.338 73.9671V62.9996H156.274V74.6537C156.274 77.1157 155.445 79.0951 153.788 80.5921C152.142 82.0891 149.959 82.8376 147.237 82.8376Z" fill="white"/>
<path d="M169.933 82.8376C166.976 82.8376 164.495 81.8664 162.491 79.9241C160.499 77.9817 159.503 75.5692 159.503 72.6866C159.503 69.804 160.499 67.3915 162.491 65.4492C164.495 63.5068 166.976 62.5356 169.933 62.5356C171.863 62.5356 173.607 62.9687 175.166 63.8347C176.737 64.7007 177.968 65.876 178.859 67.3606L174.553 69.9401C174.108 69.1483 173.477 68.5174 172.661 68.0472C171.856 67.5647 170.947 67.3235 169.933 67.3235C168.411 67.3235 167.143 67.8369 166.128 68.8638C165.114 69.8906 164.607 71.1649 164.607 72.6866C164.607 74.2083 165.114 75.4826 166.128 76.5095C167.143 77.5363 168.411 78.0497 169.933 78.0497C170.935 78.0497 171.844 77.8147 172.661 77.3446C173.477 76.8621 174.108 76.2187 174.553 75.4146L178.859 77.9941C177.968 79.491 176.737 80.6725 175.166 81.5386C173.607 82.4046 171.863 82.8376 169.933 82.8376Z" fill="white"/>
<path d="M200.924 72.7237C200.924 73.3423 200.887 73.9238 200.812 74.4681H185.799C186.146 75.6929 186.808 76.6641 187.785 77.3817C188.762 78.0992 189.95 78.458 191.348 78.458C192.474 78.458 193.507 78.2353 194.447 77.7899C195.387 77.3322 196.13 76.7569 196.674 76.0641L199.977 78.9591C198.95 80.1839 197.676 81.1365 196.154 81.8169C194.645 82.4974 192.993 82.8376 191.2 82.8376C189.171 82.8376 187.333 82.3922 185.688 81.5014C184.043 80.6107 182.756 79.3859 181.828 77.8271C180.9 76.2558 180.436 74.5176 180.436 72.6124C180.436 70.7319 180.882 69.0246 181.772 67.4905C182.676 65.944 183.913 64.7316 185.484 63.8532C187.067 62.9748 188.818 62.5356 190.736 62.5356C193.643 62.5356 196.068 63.5068 198.01 65.4492C199.953 67.3792 200.924 69.804 200.924 72.7237ZM193.835 67.9544C192.944 67.2245 191.899 66.8595 190.699 66.8595C189.498 66.8595 188.453 67.2245 187.562 67.9544C186.672 68.672 186.072 69.637 185.762 70.8494H195.653C195.344 69.637 194.738 68.672 193.835 67.9544Z" fill="white"/>
<path d="M211.056 82.8376C207.914 82.8376 205.192 81.8478 202.891 79.8684L205.285 76.6023C206.93 78.0374 208.817 78.7549 210.945 78.7549C211.959 78.7549 212.782 78.5941 213.413 78.2724C214.056 77.9508 214.378 77.5054 214.378 76.9363C214.378 76.627 214.285 76.3548 214.1 76.1198C213.926 75.8847 213.642 75.6806 213.246 75.5074C212.85 75.3342 212.467 75.1919 212.095 75.0805C211.737 74.9692 211.229 74.8393 210.574 74.6908C210.128 74.5919 209.776 74.5114 209.516 74.4496C209.256 74.3877 208.897 74.2949 208.44 74.1712C207.994 74.0351 207.629 73.9114 207.345 73.8001C207.072 73.6887 206.745 73.5403 206.361 73.3547C205.978 73.1567 205.662 72.9588 205.415 72.7608C205.18 72.5629 204.926 72.3217 204.654 72.0371C204.394 71.7526 204.184 71.4494 204.023 71.1278C203.874 70.8061 203.751 70.435 203.652 70.0143C203.553 69.5937 203.503 69.1421 203.503 68.6596C203.503 67.3359 203.868 66.2039 204.598 65.2636C205.328 64.3234 206.274 63.6367 207.437 63.2037C208.613 62.7583 209.937 62.5356 211.409 62.5356C214.267 62.5356 216.772 63.3831 218.925 65.078L216.531 68.3813C214.947 67.1936 213.277 66.5997 211.52 66.5997C210.629 66.5997 209.899 66.742 209.33 67.0266C208.761 67.3111 208.477 67.7256 208.477 68.2699C208.477 68.5792 208.563 68.8514 208.736 69.0865C208.91 69.3091 209.194 69.5071 209.59 69.6803C209.986 69.8411 210.37 69.9772 210.741 70.0886C211.112 70.1875 211.625 70.3051 212.281 70.4412C212.85 70.5649 213.308 70.67 213.654 70.7566C214.001 70.8432 214.452 70.9793 215.009 71.1649C215.566 71.3505 216.017 71.536 216.364 71.7216C216.722 71.9072 217.106 72.1608 217.514 72.4825C217.935 72.7918 218.263 73.1258 218.498 73.4846C218.733 73.8434 218.931 74.2826 219.092 74.8022C219.265 75.3218 219.351 75.8847 219.351 76.4909C219.351 77.8147 218.98 78.9652 218.238 79.9426C217.496 80.92 216.506 81.6499 215.269 82.1324C214.032 82.6025 212.627 82.8376 211.056 82.8376Z" fill="white"/>
<path d="M229.317 82.8376C226.174 82.8376 223.453 81.8478 221.151 79.8684L223.545 76.6023C225.191 78.0374 227.077 78.7549 229.205 78.7549C230.22 78.7549 231.043 78.5941 231.674 78.2724C232.317 77.9508 232.639 77.5054 232.639 76.9363C232.639 76.627 232.546 76.3548 232.36 76.1198C232.187 75.8847 231.902 75.6806 231.507 75.5074C231.111 75.3342 230.727 75.1919 230.356 75.0805C229.997 74.9692 229.49 74.8393 228.834 74.6908C228.389 74.5919 228.036 74.5114 227.776 74.4496C227.517 74.3877 227.158 74.2949 226.7 74.1712C226.255 74.0351 225.89 73.9114 225.605 73.8001C225.333 73.6887 225.005 73.5403 224.622 73.3547C224.238 73.1567 223.923 72.9588 223.675 72.7608C223.44 72.5629 223.187 72.3217 222.914 72.0371C222.655 71.7526 222.444 71.4494 222.283 71.1278C222.135 70.8061 222.011 70.435 221.912 70.0143C221.813 69.5937 221.764 69.1421 221.764 68.6596C221.764 67.3359 222.129 66.2039 222.859 65.2636C223.589 64.3234 224.535 63.6367 225.698 63.2037C226.873 62.7583 228.197 62.5356 229.669 62.5356C232.527 62.5356 235.032 63.3831 237.185 65.078L234.791 68.3813C233.208 67.1936 231.537 66.5997 229.781 66.5997C228.89 66.5997 228.16 66.742 227.591 67.0266C227.022 67.3111 226.737 67.7256 226.737 68.2699C226.737 68.5792 226.824 68.8514 226.997 69.0865C227.17 69.3091 227.455 69.5071 227.851 69.6803C228.247 69.8411 228.63 69.9772 229.001 70.0886C229.372 70.1875 229.886 70.3051 230.542 70.4412C231.111 70.5649 231.568 70.67 231.915 70.7566C232.261 70.8432 232.713 70.9793 233.27 71.1649C233.826 71.3505 234.278 71.536 234.624 71.7216C234.983 71.9072 235.367 72.1608 235.775 72.4825C236.195 72.7918 236.523 73.1258 236.758 73.4846C236.993 73.8434 237.191 74.2826 237.352 74.8022C237.525 75.3218 237.612 75.8847 237.612 76.4909C237.612 77.8147 237.241 78.9652 236.499 79.9426C235.756 80.92 234.766 81.6499 233.529 82.1324C232.292 82.6025 230.888 82.8376 229.317 82.8376Z" fill="white"/>
<path d="M257.598 79.9241C255.607 81.8664 253.132 82.8376 250.175 82.8376C247.219 82.8376 244.738 81.8664 242.734 79.9241C240.742 77.9817 239.746 75.5692 239.746 72.6866C239.746 69.804 240.742 67.3915 242.734 65.4492C244.738 63.5068 247.219 62.5356 250.175 62.5356C253.132 62.5356 255.607 63.5068 257.598 65.4492C259.59 67.3915 260.586 69.804 260.586 72.6866C260.586 75.5692 259.59 77.9817 257.598 79.9241ZM250.175 78.0497C251.71 78.0497 252.978 77.5425 253.98 76.528C254.982 75.5012 255.483 74.2207 255.483 72.6866C255.483 71.1525 254.982 69.8782 253.98 68.8638C252.978 67.8369 251.71 67.3235 250.175 67.3235C248.654 67.3235 247.386 67.8369 246.371 68.8638C245.357 69.8906 244.849 71.1649 244.849 72.6866C244.849 74.2083 245.357 75.4826 246.371 76.5095C247.386 77.5363 248.654 78.0497 250.175 78.0497Z" fill="white"/>
<defs>
<linearGradient id="paint0_linear_9_604" x1="160.015" y1="177.61" x2="51.5423" y2="191.862" gradientUnits="userSpaceOnUse">
<stop stop-color="#7C38B2"/>
<stop offset="1" stop-color="#69D9FE"/>
</linearGradient>
<linearGradient id="paint1_linear_9_604" x1="27.0532" y1="35.8717" x2="28.6793" y2="46.8541" gradientUnits="userSpaceOnUse">
<stop stop-color="#7C38B2"/>
<stop offset="1" stop-color="#69D9FE"/>
</linearGradient>
<linearGradient id="paint2_linear_9_604" x1="59.2158" y1="26.29" x2="48.2268" y2="27.8941" gradientUnits="userSpaceOnUse">
<stop stop-color="#7C38B2"/>
<stop offset="1" stop-color="#69D9FE"/>
</linearGradient>
<linearGradient id="paint3_linear_9_604" x1="36.5555" y1="68.0345" x2="47.5379" y2="66.4084" gradientUnits="userSpaceOnUse">
<stop stop-color="#7C38B2"/>
<stop offset="1" stop-color="#69D9FE"/>
</linearGradient>
</defs>
</svg>
