<svg width="528" height="524" viewBox="0 0 528 524" fill="none" xmlns="http://www.w3.org/2000/svg">
<path d="M522.16 0.730042H0.722612V522.167H522.16V0.730042Z" fill="#181144"/>
<g style="mix-blend-mode:overlay" opacity="0.5">
<g style="mix-blend-mode:color-dodge">
<path d="M522.16 0.208557H0.514025V1.46H522.16V0.208557Z" fill="#181144"/>
</g>
<g style="mix-blend-mode:color-dodge">
<path d="M522.16 10.4287H0.514025V11.6802H522.16V10.4287Z" fill="#181144"/>
</g>
<g style="mix-blend-mode:color-dodge">
<path d="M522.16 20.6489H0.514025V21.9003H522.16V20.6489Z" fill="#181144"/>
</g>
<g style="mix-blend-mode:color-dodge">
<path d="M522.16 30.8691H0.514025V32.1205H522.16V30.8691Z" fill="#181144"/>
</g>
<g style="mix-blend-mode:color-dodge">
<path d="M522.16 41.0893H0.514025V42.3407H522.16V41.0893Z" fill="#181144"/>
</g>
<g style="mix-blend-mode:color-dodge">
<path d="M522.16 51.3094H0.514025V52.5609H522.16V51.3094Z" fill="#181144"/>
</g>
<g style="mix-blend-mode:color-dodge">
<path d="M522.16 61.5296H0.514025V62.7811H522.16V61.5296Z" fill="#181144"/>
</g>
<g style="mix-blend-mode:color-dodge">
<path d="M522.16 71.7498H0.514025V73.0012H522.16V71.7498Z" fill="#181144"/>
</g>
<g style="mix-blend-mode:color-dodge">
<path d="M522.16 81.8657H0.514025V83.1171H522.16V81.8657Z" fill="#181144"/>
</g>
<g style="mix-blend-mode:color-dodge">
<path d="M522.16 92.0859H0.514025V93.3373H522.16V92.0859Z" fill="#181144"/>
</g>
<g style="mix-blend-mode:color-dodge">
<path d="M522.16 102.306H0.514025V103.557H522.16V102.306Z" fill="#181144"/>
</g>
<g style="mix-blend-mode:color-dodge">
<path d="M522.16 112.526H0.514025V113.778H522.16V112.526Z" fill="#181144"/>
</g>
<g style="mix-blend-mode:color-dodge">
<path d="M522.16 122.746H0.514025V123.998H522.16V122.746Z" fill="#181144"/>
</g>
<g style="mix-blend-mode:color-dodge">
<path d="M522.16 132.966H0.514025V134.218H522.16V132.966Z" fill="#181144"/>
</g>
<g style="mix-blend-mode:color-dodge">
<path d="M522.16 143.187H0.514025V144.438H522.16V143.187Z" fill="#181144"/>
</g>
<g style="mix-blend-mode:color-dodge">
<path d="M522.16 153.407H0.514025V154.658H522.16V153.407Z" fill="#181144"/>
</g>
<g style="mix-blend-mode:color-dodge">
<path d="M522.16 163.627H0.514025V164.878H522.16V163.627Z" fill="#181144"/>
</g>
<g style="mix-blend-mode:color-dodge">
<path d="M522.16 173.847H0.514025V175.099H522.16V173.847Z" fill="#181144"/>
</g>
<g style="mix-blend-mode:color-dodge">
<path d="M522.16 184.067H0.514025V185.319H522.16V184.067Z" fill="#181144"/>
</g>
<g style="mix-blend-mode:color-dodge">
<path d="M522.16 194.288H0.514025V195.539H522.16V194.288Z" fill="#181144"/>
</g>
<g style="mix-blend-mode:color-dodge">
<path d="M522.16 204.508H0.514025V205.759H522.16V204.508Z" fill="#181144"/>
</g>
<g style="mix-blend-mode:color-dodge">
<path d="M522.16 214.728H0.514025V215.979H522.16V214.728Z" fill="#181144"/>
</g>
<g style="mix-blend-mode:color-dodge">
<path d="M522.16 224.948H0.514025V226.199H522.16V224.948Z" fill="#181144"/>
</g>
<g style="mix-blend-mode:color-dodge">
<path d="M522.16 235.064H0.514025V236.315H522.16V235.064Z" fill="#181144"/>
</g>
<g style="mix-blend-mode:color-dodge">
<path d="M522.16 245.284H0.514025V246.535H522.16V245.284Z" fill="#181144"/>
</g>
<g style="mix-blend-mode:color-dodge">
<path d="M522.16 255.504H0.514025V256.756H522.16V255.504Z" fill="#181144"/>
</g>
<g style="mix-blend-mode:color-dodge">
<path d="M522.16 265.724H0.514025V266.976H522.16V265.724Z" fill="#181144"/>
</g>
<g style="mix-blend-mode:color-dodge">
<path d="M522.16 275.945H0.514025V277.196H522.16V275.945Z" fill="#181144"/>
</g>
<g style="mix-blend-mode:color-dodge">
<path d="M522.16 286.165H0.514025V287.416H522.16V286.165Z" fill="#181144"/>
</g>
<g style="mix-blend-mode:color-dodge">
<path d="M522.16 296.385H0.514025V297.636H522.16V296.385Z" fill="#181144"/>
</g>
<g style="mix-blend-mode:color-dodge">
<path d="M522.16 306.605H0.514025V307.857H522.16V306.605Z" fill="#181144"/>
</g>
<g style="mix-blend-mode:color-dodge">
<path d="M522.16 316.825H0.514025V318.077H522.16V316.825Z" fill="#181144"/>
</g>
<g style="mix-blend-mode:color-dodge">
<path d="M522.16 327.045H0.514025V328.297H522.16V327.045Z" fill="#181144"/>
</g>
<g style="mix-blend-mode:color-dodge">
<path d="M522.16 337.266H0.514025V338.517H522.16V337.266Z" fill="#181144"/>
</g>
<g style="mix-blend-mode:color-dodge">
<path d="M522.16 347.486H0.514025V348.737H522.16V347.486Z" fill="#181144"/>
</g>
<g style="mix-blend-mode:color-dodge">
<path d="M522.16 357.706H0.514025V358.957H522.16V357.706Z" fill="#181144"/>
</g>
<g style="mix-blend-mode:color-dodge">
<path d="M522.16 367.926H0.514025V369.178H522.16V367.926Z" fill="#181144"/>
</g>
<g style="mix-blend-mode:color-dodge">
<path d="M522.16 378.146H0.514025V379.398H522.16V378.146Z" fill="#181144"/>
</g>
<g style="mix-blend-mode:color-dodge">
<path d="M522.16 388.366H0.514025V389.618H522.16V388.366Z" fill="#181144"/>
</g>
<g style="mix-blend-mode:color-dodge">
<path d="M522.16 398.482H0.514025V399.734H522.16V398.482Z" fill="#181144"/>
</g>
<g style="mix-blend-mode:color-dodge">
<path d="M522.16 408.703H0.514025V409.954H522.16V408.703Z" fill="#181144"/>
</g>
<g style="mix-blend-mode:color-dodge">
<path d="M522.16 418.923H0.514025V420.174H522.16V418.923Z" fill="#181144"/>
</g>
<g style="mix-blend-mode:color-dodge">
<path d="M522.16 429.143H0.514025V430.394H522.16V429.143Z" fill="#181144"/>
</g>
<g style="mix-blend-mode:color-dodge">
<path d="M522.16 439.363H0.514025V440.614H522.16V439.363Z" fill="#181144"/>
</g>
<g style="mix-blend-mode:color-dodge">
<path d="M522.16 449.583H0.514025V450.835H522.16V449.583Z" fill="#181144"/>
</g>
<g style="mix-blend-mode:color-dodge">
<path d="M522.16 459.803H0.514025V461.055H522.16V459.803Z" fill="#181144"/>
</g>
<g style="mix-blend-mode:color-dodge">
<path d="M522.16 470.023H0.514025V471.275H522.16V470.023Z" fill="#181144"/>
</g>
<g style="mix-blend-mode:color-dodge">
<path d="M522.16 480.244H0.514025V481.495H522.16V480.244Z" fill="#181144"/>
</g>
<g style="mix-blend-mode:color-dodge">
<path d="M522.16 490.464H0.514025V491.715H522.16V490.464Z" fill="#181144"/>
</g>
<g style="mix-blend-mode:color-dodge">
<path d="M522.16 500.684H0.514025V501.936H522.16V500.684Z" fill="#181144"/>
</g>
<g style="mix-blend-mode:color-dodge">
<path d="M522.16 510.904H0.514025V512.156H522.16V510.904Z" fill="#181144"/>
</g>
<g style="mix-blend-mode:color-dodge">
<path d="M522.16 521.124H0.514025V522.376H522.16V521.124Z" fill="#181144"/>
</g>
</g>
<mask id="mask0_42_1180" style="mask-type:luminance" maskUnits="userSpaceOnUse" x="0" y="0" width="523" height="524">
<path d="M522.16 0H0.514025V523.94H522.16V0Z" fill="white"/>
</mask>
<g mask="url(#mask0_42_1180)">
<path opacity="0.5" d="M818.441 207.532C830.746 338.1 716.03 455.841 562.206 470.337C408.382 484.832 273.643 390.765 261.233 260.197C248.927 129.629 363.643 11.8888 517.467 -2.60712C671.291 -17.1031 806.03 76.9642 818.441 207.532Z" fill="url(#paint0_radial_42_1180)"/>
<path opacity="0.4" d="M253.724 10.4288C266.03 140.997 151.314 258.737 -2.5103 273.233C-156.439 287.833 -291.178 193.662 -303.484 63.0939C-315.894 -67.474 -201.074 -185.214 -47.2496 -199.71C106.574 -214.206 241.314 -120.139 253.724 10.4288Z" fill="url(#paint1_radial_42_1180)"/>
<path d="M892.693 438.633C904.999 569.201 790.283 686.942 636.459 701.438C482.635 715.933 347.896 621.866 335.485 491.298C323.179 360.73 437.896 242.99 591.72 228.494C745.544 213.998 880.283 308.065 892.693 438.633Z" fill="url(#paint2_radial_42_1180)"/>
</g>
<g style="mix-blend-mode:color-dodge">
<path d="M448.324 202.839C429.657 227.242 457.293 254.983 481.696 236.315C500.26 211.912 472.728 184.38 448.324 202.839Z" fill="url(#paint3_radial_42_1180)"/>
</g>
<g style="mix-blend-mode:color-dodge">
<path d="M70.0738 332.885C51.4063 357.289 79.0425 385.029 103.446 366.362C122.009 341.959 94.477 314.427 70.0738 332.885Z" fill="url(#paint4_radial_42_1180)"/>
</g>
<g style="mix-blend-mode:color-dodge">
<path d="M151.835 418.297C133.168 442.7 160.804 470.441 185.207 451.773C203.77 427.37 176.238 399.838 151.835 418.297Z" fill="url(#paint5_radial_42_1180)"/>
</g>
<g style="mix-blend-mode:color-dodge">
<path d="M327.247 91.8772C308.579 116.28 336.215 144.021 360.619 125.354C379.182 100.95 351.65 73.4183 327.247 91.8772Z" fill="url(#paint6_radial_42_1180)"/>
</g>
<g style="mix-blend-mode:color-dodge">
<path d="M166.54 105.226C147.872 129.629 175.508 157.37 199.912 138.702C218.475 114.299 190.943 86.7672 166.54 105.226Z" fill="url(#paint7_radial_42_1180)"/>
</g>
<g style="mix-blend-mode:color-dodge">
<path d="M98.4399 117.428C79.7725 141.831 107.409 169.571 131.812 150.904C150.375 126.501 122.843 98.9688 98.4399 117.428Z" fill="url(#paint8_radial_42_1180)"/>
</g>
<g style="mix-blend-mode:color-dodge">
<path d="M363.747 396.605C344.975 421.008 372.716 448.749 397.119 430.081C415.682 405.678 388.151 378.146 363.747 396.605Z" fill="url(#paint9_radial_42_1180)"/>
</g>
<g style="mix-blend-mode:color-dodge">
<path d="M49.842 449.583C31.1746 473.986 58.8107 501.727 83.214 483.059C101.777 458.656 74.2453 431.124 49.842 449.583Z" fill="url(#paint10_radial_42_1180)"/>
</g>
<g style="mix-blend-mode:color-dodge">
<path d="M427.467 125.354C414.64 142.144 433.62 161.124 450.41 148.297C463.133 131.507 444.257 112.631 427.467 125.354Z" fill="url(#paint11_radial_42_1180)"/>
</g>
<g style="mix-blend-mode:color-dodge">
<path d="M432.264 462.515C419.437 479.305 438.417 498.285 455.207 485.458C467.93 468.668 449.054 449.792 432.264 462.515Z" fill="url(#paint12_radial_42_1180)"/>
</g>
<g style="mix-blend-mode:color-dodge">
<path d="M186.98 57.9838C174.153 74.7741 193.133 93.7544 209.923 80.9271C222.646 64.1368 203.77 45.2608 186.98 57.9838Z" fill="url(#paint13_radial_42_1180)"/>
</g>
<g style="mix-blend-mode:color-dodge">
<path d="M66.0066 74.2527C53.1792 91.043 72.1595 110.023 88.9498 97.1959C101.673 80.4056 82.7968 61.5296 66.0066 74.2527Z" fill="url(#paint14_radial_42_1180)"/>
</g>
<g style="mix-blend-mode:color-dodge">
<path d="M457.085 60.3825C444.257 77.1727 463.237 96.153 480.028 83.3257C492.751 66.5354 473.875 47.6594 457.085 60.3825Z" fill="url(#paint15_radial_42_1180)"/>
</g>
<g style="mix-blend-mode:color-dodge">
<path d="M255.914 72.1669C237.247 96.5702 264.883 124.311 289.286 105.643C307.849 81.2399 280.317 53.708 255.914 72.1669Z" fill="url(#paint16_radial_42_1180)"/>
</g>
<g style="mix-blend-mode:color-dodge">
<path d="M445.091 340.499C426.424 364.902 454.06 392.642 478.463 373.975C497.027 349.571 469.495 322.04 445.091 340.499Z" fill="url(#paint17_radial_42_1180)"/>
</g>
<g style="mix-blend-mode:color-dodge">
<path d="M288.869 382.631C278.44 396.188 293.875 411.623 307.432 401.298C317.756 387.741 302.426 372.306 288.869 382.631Z" fill="url(#paint18_radial_42_1180)"/>
</g>
<g style="mix-blend-mode:color-dodge">
<path d="M54.9521 195.852C36.2846 220.255 63.9208 247.996 88.3241 229.328C106.887 204.925 79.3554 177.393 54.9521 195.852Z" fill="url(#paint19_radial_42_1180)"/>
</g>
<g style="mix-blend-mode:overlay" opacity="0.5">
<path d="M198.973 114.299C198.973 115.133 198.243 115.863 197.409 115.863C196.574 115.863 195.844 115.133 195.844 114.299C195.844 113.465 196.574 112.735 197.409 112.735C198.243 112.735 198.973 113.465 198.973 114.299Z" fill="white"/>
<path d="M298.255 383.465C298.255 384.404 297.525 385.134 296.586 385.134C295.648 385.134 294.918 384.404 294.918 383.465C294.918 382.526 295.648 381.796 296.586 381.796C297.525 381.796 298.255 382.526 298.255 383.465Z" fill="white"/>
<path d="M295.439 236.628C295.439 238.714 293.77 240.383 291.685 240.383C289.599 240.383 287.93 238.714 287.93 236.628C287.93 234.542 289.599 232.874 291.685 232.874C293.77 232.874 295.439 234.542 295.439 236.628Z" fill="white"/>
<path d="M322.032 232.144C322.032 232.665 321.615 233.187 320.989 233.187C320.364 233.187 319.947 232.77 319.947 232.144C319.947 231.518 320.364 231.101 320.989 231.101C321.615 231.101 322.032 231.518 322.032 232.144Z" fill="white"/>
<path d="M440.92 105.226C440.92 106.79 439.564 108.146 438 108.146C436.436 108.146 435.08 106.79 435.08 105.226C435.08 103.662 436.436 102.306 438 102.306C439.564 102.306 440.92 103.662 440.92 105.226Z" fill="white"/>
<path d="M75.7053 121.808C75.7053 122.433 75.1838 122.955 74.5581 122.955C73.9324 122.955 73.4109 122.433 73.4109 121.808C73.4109 121.182 73.9324 120.661 74.5581 120.661C75.1838 120.661 75.7053 121.182 75.7053 121.808Z" fill="white"/>
<path d="M334.86 74.6698C334.86 75.9212 333.817 76.9641 332.565 76.9641C331.314 76.9641 330.271 75.9212 330.271 74.6698C330.271 73.4183 331.314 72.3754 332.565 72.3754C333.817 72.3754 334.86 73.4183 334.86 74.6698Z" fill="white"/>
<path d="M353.527 212.016C353.527 213.789 352.171 215.145 350.398 215.145C348.626 215.145 347.27 213.685 347.27 212.016C347.27 210.348 348.73 208.888 350.398 208.888C352.067 208.888 353.527 210.243 353.527 212.016Z" fill="white"/>
<path d="M394.408 144.23C394.408 145.481 393.365 146.42 392.113 146.42C390.862 146.42 389.819 145.377 389.819 144.23C389.819 143.082 390.862 141.935 392.113 141.935C393.365 141.935 394.408 142.978 394.408 144.23Z" fill="white"/>
<path d="M372.299 148.297C372.299 148.61 371.986 148.922 371.673 148.922C371.36 148.922 371.047 148.61 371.047 148.297C371.047 147.984 371.36 147.671 371.673 147.671C371.986 147.671 372.299 147.984 372.299 148.297Z" fill="white"/>
<path d="M427.988 443.847C427.988 444.786 427.258 445.516 426.32 445.516C425.381 445.516 424.651 444.786 424.651 443.847C424.651 442.909 425.381 442.179 426.32 442.179C427.258 442.179 427.988 442.909 427.988 443.847Z" fill="white"/>
<path d="M370.526 58.1923C370.526 58.7138 370.109 59.2352 369.483 59.2352C368.857 59.2352 368.44 58.8181 368.44 58.1923C368.44 57.5666 368.857 57.1495 369.483 57.1495C370.109 57.1495 370.526 57.5666 370.526 58.1923Z" fill="white"/>
<path d="M206.795 355.724C206.795 358.227 204.813 360.209 202.31 360.209C199.807 360.209 197.826 358.227 197.826 355.724C197.826 353.222 199.807 351.24 202.31 351.24C204.813 351.24 206.795 353.222 206.795 355.724Z" fill="white"/>
<path d="M363.747 87.7057C363.747 90.1043 361.766 92.0858 359.367 92.0858C356.969 92.0858 354.987 90.1043 354.987 87.7057C354.987 85.3071 356.969 83.3256 359.367 83.3256C361.766 83.3256 363.747 85.3071 363.747 87.7057Z" fill="white"/>
</g>
<g style="mix-blend-mode:overlay" opacity="0.5">
<path d="M19.1815 364.172C19.1815 365.11 18.4515 365.841 17.5129 365.841C16.5743 365.841 15.8443 365.11 15.8443 364.172C15.8443 363.233 16.5743 362.503 17.5129 362.503C18.4515 362.503 19.1815 363.233 19.1815 364.172Z" fill="white"/>
<path d="M16.47 217.335C16.47 219.421 14.8014 221.089 12.7157 221.089C10.6299 221.089 8.96132 219.421 8.96132 217.335C8.96132 215.249 10.6299 213.581 12.7157 213.581C14.8014 213.581 16.47 215.249 16.47 217.335Z" fill="white"/>
<path d="M43.0633 212.851C43.0633 213.372 42.6462 213.894 42.0205 213.894C41.3947 213.894 40.9776 213.476 40.9776 212.851C40.9776 212.225 41.3947 211.808 42.0205 211.808C42.6462 211.808 43.0633 212.225 43.0633 212.851Z" fill="white"/>
<path d="M274.686 419.027C274.686 419.966 273.956 420.696 273.017 420.696C272.079 420.696 271.349 419.966 271.349 419.027C271.349 418.088 272.079 417.358 273.017 417.358C273.956 417.358 274.686 418.088 274.686 419.027Z" fill="white"/>
<path d="M161.951 86.0372C161.951 87.6015 160.595 88.9572 159.031 88.9572C157.467 88.9572 156.111 87.6015 156.111 86.0372C156.111 84.4729 157.467 83.1171 159.031 83.1171C160.595 83.1171 161.951 84.4729 161.951 86.0372Z" fill="white"/>
<path d="M55.7864 55.4809C55.7864 56.7324 54.7435 57.7752 53.4921 57.7752C52.2406 57.7752 51.1977 56.7324 51.1977 55.4809C51.1977 54.2295 52.2406 53.1866 53.4921 53.1866C54.7435 53.1866 55.7864 54.2295 55.7864 55.4809Z" fill="white"/>
<path d="M74.4538 192.828C74.4538 194.6 73.0981 195.956 71.3252 195.956C69.5523 195.956 68.1966 194.496 68.1966 192.828C68.1966 191.159 69.6566 189.699 71.3252 189.699C72.9938 189.699 74.4538 191.055 74.4538 192.828Z" fill="white"/>
<path d="M115.335 125.041C115.335 126.292 114.292 127.231 113.04 127.231C111.789 127.231 110.746 126.188 110.746 125.041C110.746 123.893 111.789 122.746 113.04 122.746C114.292 122.746 115.335 123.789 115.335 125.041Z" fill="white"/>
<path d="M270.931 149.235C270.931 149.444 270.723 149.652 270.514 149.652C270.306 149.652 270.097 149.444 270.097 149.235C270.097 149.027 270.306 148.818 270.514 148.818C270.723 148.818 270.931 149.027 270.931 149.235Z" fill="white"/>
<path d="M93.3299 129.108C93.3299 129.421 93.017 129.734 92.7041 129.734C92.3913 129.734 92.0784 129.421 92.0784 129.108C92.0784 128.795 92.3913 128.482 92.7041 128.482C93.017 128.482 93.3299 128.795 93.3299 129.108Z" fill="white"/>
<path d="M149.019 424.659C149.019 425.597 148.289 426.327 147.351 426.327C146.412 426.327 145.682 425.597 145.682 424.659C145.682 423.72 146.412 422.99 147.351 422.99C148.289 422.99 149.019 423.72 149.019 424.659Z" fill="white"/>
<path d="M91.4527 39.0035C91.4527 39.5249 91.0356 40.0464 90.4098 40.0464C89.7841 40.0464 89.367 39.6292 89.367 39.0035C89.367 38.3778 89.7841 37.9606 90.4098 37.9606C91.0356 37.9606 91.4527 38.3778 91.4527 39.0035Z" fill="white"/>
<path d="M84.7783 68.5169C84.7783 70.9155 82.7968 72.8969 80.3982 72.8969C77.9996 72.8969 76.0181 70.9155 76.0181 68.5169C76.0181 66.1183 77.9996 64.1368 80.3982 64.1368C82.7968 64.1368 84.7783 66.1183 84.7783 68.5169Z" fill="white"/>
</g>
<g style="mix-blend-mode:overlay" opacity="0.5">
<path d="M354.57 101.263C354.57 102.097 353.84 102.827 353.006 102.827C352.171 102.827 351.441 102.097 351.441 101.263C351.441 100.429 352.171 99.6989 353.006 99.6989C353.84 99.6989 354.57 100.429 354.57 101.263Z" fill="white"/>
<path d="M453.852 370.325C453.852 371.263 453.122 371.993 452.183 371.993C451.244 371.993 450.514 371.263 450.514 370.325C450.514 369.386 451.244 368.656 452.183 368.656C453.122 368.656 453.852 369.386 453.852 370.325Z" fill="white"/>
<path d="M451.14 223.488C451.14 225.574 449.472 227.242 447.386 227.242C445.3 227.242 443.631 225.574 443.631 223.488C443.631 221.402 445.3 219.734 447.386 219.734C449.472 219.734 451.14 221.402 451.14 223.488Z" fill="white"/>
<path d="M477.733 219.004C477.733 219.525 477.316 220.047 476.691 220.047C476.065 220.047 475.648 219.629 475.648 219.004C475.648 218.378 476.065 217.961 476.691 217.961C477.316 217.961 477.733 218.378 477.733 219.004Z" fill="white"/>
<path d="M231.302 108.772C231.302 109.398 230.781 109.919 230.155 109.919C229.529 109.919 229.008 109.398 229.008 108.772C229.008 108.146 229.529 107.625 230.155 107.625C230.781 107.625 231.302 108.146 231.302 108.772Z" fill="white"/>
<path d="M490.457 61.6339C490.457 62.8854 489.414 63.9282 488.162 63.9282C486.911 63.9282 485.868 62.8854 485.868 61.6339C485.868 60.3825 486.911 59.3396 488.162 59.3396C489.414 59.3396 490.457 60.3825 490.457 61.6339Z" fill="white"/>
<path d="M509.124 198.98C509.124 200.753 507.768 202.109 505.995 202.109C504.222 202.109 502.867 200.649 502.867 198.98C502.867 197.312 504.327 195.852 505.995 195.852C507.664 195.852 509.124 197.208 509.124 198.98Z" fill="white"/>
<path d="M528 135.261C528 135.574 527.687 135.887 527.374 135.887C527.061 135.887 526.749 135.574 526.749 135.261C526.749 134.948 527.061 134.635 527.374 134.635C527.687 134.635 528 134.948 528 135.261Z" fill="white"/>
<path d="M526.123 45.1565C526.123 45.678 525.706 46.1994 525.08 46.1994C524.454 46.1994 524.037 45.7822 524.037 45.1565C524.037 44.5308 524.454 44.1136 525.08 44.1136C525.706 44.1136 526.123 44.5308 526.123 45.1565Z" fill="white"/>
<path d="M362.392 342.689C362.392 345.191 360.41 347.173 357.907 347.173C355.404 347.173 353.423 345.191 353.423 342.689C353.423 340.186 355.404 338.204 357.907 338.204C360.41 338.204 362.392 340.186 362.392 342.689Z" fill="white"/>
<path d="M519.448 74.6698C519.448 77.0684 517.467 79.0499 515.068 79.0499C512.67 79.0499 510.688 77.0684 510.688 74.6698C510.688 72.2712 512.67 70.2897 515.068 70.2897C517.467 70.2897 519.448 72.2712 519.448 74.6698Z" fill="white"/>
</g>
<path d="M93.9556 231.31L90.3055 225.887H116.273V231.31H93.9556Z" fill="url(#paint20_linear_42_1180)"/>
<path d="M91.6613 184.276L88.0112 178.853H118.046L115.647 184.276H91.6613Z" fill="url(#paint21_linear_42_1180)"/>
<path d="M301.279 182.503L297.629 173.743H330.271V182.503H301.279Z" fill="url(#paint22_linear_42_1180)"/>
<path d="M188.44 179.062L184.79 173.743H217.432V179.062H188.44Z" fill="url(#paint23_linear_42_1180)"/>
<path d="M191.777 191.993L195.427 186.57H168.834V191.993H191.777Z" fill="url(#paint24_linear_42_1180)"/>
<path d="M156.007 310.255L159.657 304.832H133.063V310.255H156.007Z" fill="url(#paint25_linear_42_1180)"/>
<path d="M269.576 325.064L273.226 319.745H246.737V325.064H269.576Z" fill="url(#paint26_linear_42_1180)"/>
<path d="M424.651 275.945L428.301 270.522H401.708V275.945H424.651Z" fill="url(#paint27_linear_42_1180)"/>
<path d="M433.307 330.487L436.957 325.064H410.364V330.487H433.307Z" fill="url(#paint28_linear_42_1180)"/>
<path d="M432.994 238.505L436.644 230.892H410.051V238.505H432.994Z" fill="url(#paint29_linear_42_1180)"/>
<path d="M321.615 294.925L317.965 289.606H350.607V294.925H321.615Z" fill="url(#paint30_linear_42_1180)"/>
<path d="M225.775 280.012L222.125 274.589H254.767V280.012H225.775Z" fill="url(#paint31_linear_42_1180)"/>
<path d="M252.16 338.83L248.51 332.051H281.047V338.83H252.16Z" fill="url(#paint32_linear_42_1180)"/>
<path d="M197.93 332.051L194.28 325.377H226.922V332.051H197.93Z" fill="url(#paint33_linear_42_1180)"/>
<path d="M174.883 273.233L171.233 267.81H195.01V273.233H174.883Z" fill="url(#paint34_linear_42_1180)"/>
<path d="M87.8026 317.972L84.1526 310.359H107.93V317.972H87.8026Z" fill="url(#paint35_linear_42_1180)"/>
<path d="M140.364 170.197C128.162 170.197 117.837 174.682 110.954 182.19H169.877C163.098 174.473 152.878 170.197 140.364 170.197Z" fill="#FF00FD"/>
<path d="M225.775 171.553H206.586L203.875 177.706H228.486L225.775 171.553Z" fill="#FF00FD"/>
<path d="M225.879 177.706H201.267L196.783 187.926H230.364L225.879 177.706Z" fill="#FF00FD"/>
<path d="M229.216 211.912H248.301L244.234 202.839H225.566L229.216 211.912Z" fill="#FF00FD"/>
<path d="M176.238 240.383H196.053L198.869 233.5H179.263L176.238 240.383Z" fill="#FF00FD"/>
<path d="M243.608 211.912H224.628L224.836 212.642H207.212L216.076 190.638L220.978 202.839H239.645L232.971 187.926H199.39L181.348 228.807H200.746L201.476 227.034H230.572L235.995 240.383H256.227L243.608 211.912Z" fill="#FF00FD"/>
<path d="M181.348 233.5H200.955L202.832 228.807H183.434L181.348 233.5Z" fill="#FF00FD"/>
<path d="M172.171 204.508H154.964V208.783H172.171V204.508Z" fill="#FF00FD"/>
<path d="M169.877 208.783H152.669V215.979H169.877V208.783Z" fill="#FF00FD"/>
<path d="M281.047 171.553H264.987V181.356H286.992L281.047 171.553Z" fill="#FF00FD"/>
<path d="M323.805 240.383H341.743L341.638 226.2H323.701L323.805 240.383Z" fill="#FF00FD"/>
<path d="M320.468 221.507V226.2H338.405L338.301 221.507H320.468Z" fill="#FF00FD"/>
<path d="M279.692 233.291H261.754V240.382H279.692V233.291Z" fill="#FF00FD"/>
<path d="M276.25 228.077H258.313V233.291H276.25V228.077Z" fill="#FF00FD"/>
<path d="M413.284 171.553H359.367V179.27H413.284V171.553Z" fill="#FF00FD"/>
<path d="M410.677 225.365H374.697V212.746H405.254V198.25H374.697V186.57H409.425V179.27H355.509V228.807H410.677V225.365Z" fill="#FF00FD"/>
<path d="M410.781 236.315H355.509V240.278H410.781V236.315Z" fill="#FF00FD"/>
<path d="M407.757 228.807H352.484V236.42H407.757V228.807Z" fill="#FF00FD"/>
<path d="M301.905 211.286L283.655 181.356H261.754V228.077H279.692V204.925L297.316 233.604H305.972L323.597 203.882L323.701 221.507H341.638L341.534 195.539H311.291L301.905 211.286Z" fill="#FF00FD"/>
<path d="M341.534 171.553H325.474L315.149 188.969H341.534V171.553Z" fill="#FF00FD"/>
<path d="M317.131 188.969L313.272 195.539H343.515V188.969H317.131Z" fill="#FF00FD"/>
<path d="M154.964 223.384C151.522 224.948 148.081 225.678 144.431 225.678C140.781 225.678 138.278 225.052 135.671 223.905H109.912C116.169 234.96 128.37 241.843 143.284 241.843C158.197 241.843 164.245 238.818 172.171 233.082V215.979H154.964V223.384Z" fill="#FF00FD"/>
<path d="M124.929 205.968C124.929 194.079 132.751 186.362 144.535 186.362C156.319 186.362 156.528 188.865 161.221 193.975L173.631 182.816C173.423 182.607 173.214 182.399 173.11 182.19H114.187C108.556 188.343 105.323 196.582 105.323 205.968C105.323 215.354 105.74 212.851 106.679 215.979H127.328C125.868 213.164 125.033 209.722 125.033 205.968H124.929Z" fill="#FF00FD"/>
<path d="M130.56 215.979H109.912C110.642 218.795 111.789 221.402 113.144 223.801H138.903C135.253 222.132 132.438 219.421 130.56 215.979Z" fill="#FF00FD"/>
<path d="M147.664 170.197C135.462 170.197 125.138 174.682 118.255 182.19H177.177C170.398 174.473 160.178 170.197 147.664 170.197Z" fill="#03FCFE"/>
<path d="M233.075 171.553H213.886L211.175 177.706H235.787L233.075 171.553Z" fill="#03FCFE"/>
<path d="M233.179 177.706H208.568L204.083 187.926H237.664L233.179 177.706Z" fill="#03FCFE"/>
<path d="M236.517 211.912H255.601L251.534 202.839H232.867L236.517 211.912Z" fill="#03FCFE"/>
<path d="M183.539 240.383H203.353L206.169 233.5H186.563L183.539 240.383Z" fill="#03FCFE"/>
<path d="M250.908 211.912H231.928L232.136 212.642H214.512L223.376 190.638L228.278 202.839H246.945L240.271 187.926H206.69L188.649 228.807H208.046L208.776 227.034H237.872L243.295 240.383H263.527L250.908 211.912Z" fill="#03FCFE"/>
<path d="M188.649 233.5H208.255L210.132 228.807H190.734L188.649 233.5Z" fill="#03FCFE"/>
<path d="M179.471 204.508H162.264V208.783H179.471V204.508Z" fill="#03FCFE"/>
<path d="M177.177 208.783H159.97V215.979H177.177V208.783Z" fill="#03FCFE"/>
<path d="M288.347 171.553H272.287V181.356H294.292L288.347 171.553Z" fill="#03FCFE"/>
<path d="M331.105 240.383H349.043L348.938 226.2H331.001L331.105 240.383Z" fill="#03FCFE"/>
<path d="M327.768 221.507V226.2H345.706L345.601 221.507H327.768Z" fill="#03FCFE"/>
<path d="M286.992 233.291H269.054V240.382H286.992V233.291Z" fill="#03FCFE"/>
<path d="M283.55 228.077H265.613V233.291H283.55V228.077Z" fill="#03FCFE"/>
<path d="M420.584 171.553H366.667V179.27H420.584V171.553Z" fill="#03FCFE"/>
<path d="M417.977 225.365H381.998V212.746H412.554V198.25H381.998V186.57H416.725V179.27H362.809V228.807H417.977V225.365Z" fill="#03FCFE"/>
<path d="M418.081 236.315H362.809V240.278H418.081V236.315Z" fill="#03FCFE"/>
<path d="M415.057 228.807H359.784V236.42H415.057V228.807Z" fill="#03FCFE"/>
<path d="M309.205 211.286L290.955 181.356H269.054V228.077H286.992V204.925L304.616 233.604H313.272L330.897 203.882L331.001 221.507H348.938L348.834 195.539H318.591L309.205 211.286Z" fill="#03FCFE"/>
<path d="M348.834 171.553H332.774L322.449 188.969H348.834V171.553Z" fill="#03FCFE"/>
<path d="M324.431 188.969L320.572 195.539H350.816V188.969H324.431Z" fill="#03FCFE"/>
<path d="M162.264 223.384C158.822 224.948 155.381 225.678 151.731 225.678C148.081 225.678 145.578 225.052 142.971 223.905H117.212C123.469 234.96 135.671 241.843 150.584 241.843C165.497 241.843 171.545 238.818 179.471 233.082V215.979H162.264V223.384Z" fill="#03FCFE"/>
<path d="M132.229 205.968C132.229 194.079 140.051 186.362 151.835 186.362C163.62 186.362 163.828 188.865 168.521 193.975L180.931 182.816C180.723 182.607 180.514 182.399 180.41 182.19H121.487C115.856 188.343 112.623 196.582 112.623 205.968C112.623 215.354 113.04 212.851 113.979 215.979H134.628C133.168 213.164 132.333 209.722 132.333 205.968H132.229Z" fill="#03FCFE"/>
<path d="M137.861 215.979H117.212C117.942 218.795 119.089 221.402 120.445 223.801H146.204C142.554 222.132 139.738 219.421 137.861 215.979Z" fill="#03FCFE"/>
<path d="M139.946 264.264C127.745 264.264 117.212 268.644 109.912 275.945H169.981C162.681 268.644 152.148 264.264 139.946 264.264Z" fill="#FF00FD"/>
<path d="M175.613 275.945H115.543C109.599 281.889 105.844 289.815 105.114 298.992H126.076C127.432 288.251 135.462 281.368 145.578 281.368C155.694 281.368 165.288 289.606 165.288 302.225C165.288 314.844 156.632 323.083 145.578 323.083C134.523 323.083 128.788 317.347 126.493 308.065H105.323C108.139 326.941 124.303 340.186 145.474 340.186C166.644 340.186 186.146 324.125 186.146 302.225C186.146 280.325 182.183 282.619 175.613 275.945Z" fill="#FF00FD"/>
<path d="M128.996 302.225C128.996 301.078 128.996 300.035 129.205 298.992H108.243C108.243 300.035 108.139 301.182 108.139 302.225C108.139 304.207 108.243 306.188 108.556 308.065H129.726C129.309 306.188 128.996 304.311 128.996 302.225Z" fill="#FF00FD"/>
<path d="M268.637 265.724H248.197L241.522 281.367H261.963L268.637 265.724Z" fill="#FF00FD"/>
<path d="M227.965 313.279L212.426 275.945H190.109L209.61 321.414H244.86L258.313 289.815H237.977L227.965 313.279Z" fill="url(#paint36_linear_42_1180)"/>
<path d="M217.015 338.83H237.351L240.271 332.051H214.095L217.015 338.83Z" fill="#FF00FD"/>
<path d="M210.862 265.724H188.544L192.924 275.945H215.138L210.862 265.724Z" fill="#FF00FD"/>
<path d="M238.915 281.368L235.369 289.815H255.705L259.355 281.368H238.915Z" fill="#FF00FD"/>
<path d="M217.745 332.051H243.921L248.51 321.414H213.26L217.745 332.051Z" fill="#FF00FD"/>
<path d="M272.913 332.051H331.627V322.874H293.457V309.421H325.891V305.249H272.913V332.051Z" fill="#FF00FD"/>
<path d="M330.271 281.68V273.546H272.913V297.636H325.891V293.986H293.457V281.68H330.271Z" fill="#FF00FD"/>
<path d="M334.755 265.724H277.397V273.546H334.755V265.724Z" fill="#FF00FD"/>
<path d="M328.811 332.051H270.097V338.726H328.811V332.051Z" fill="#FF00FD"/>
<path d="M323.597 297.636H270.619V305.249H323.597V297.636Z" fill="#FF00FD"/>
<path d="M388.359 338.83H410.468L404.107 329.548H381.998L388.359 338.83Z" fill="#FF00FD"/>
<path d="M408.591 297.636H387.108C385.439 301.286 381.476 303.372 375.219 303.372H363.747V297.636H343.098V329.548H363.747V319.328H375.01L377.409 322.874H399.518L394.616 315.782C402.229 312.132 407.131 305.875 408.487 297.636H408.591Z" fill="#FF00FD"/>
<path d="M363.747 281.993H375.219C381.163 281.993 385.126 283.975 386.899 287.416H408.487C407.652 283.036 405.879 279.177 403.168 275.945H342.994V287.416H363.643V281.993H363.747Z" fill="#FF00FD"/>
<path d="M361.87 329.548H341.221V338.83H361.87V329.548Z" fill="#FF00FD"/>
<path d="M378.765 265.724H345.393V275.945H405.567C400.039 269.374 390.758 265.724 378.869 265.724H378.765Z" fill="#FF00FD"/>
<path d="M386.691 329.548H408.799L404.211 322.978H382.206L386.691 329.548Z" fill="#FF00FD"/>
<path d="M361.244 287.416H340.595V297.636H361.244V287.416Z" fill="#FF00FD"/>
<path d="M385.648 292.735C385.648 294.612 385.335 296.176 384.605 297.636H406.088C406.297 296.072 406.505 294.404 406.505 292.735C406.505 291.066 406.297 289.085 406.088 287.416H384.5C385.23 288.876 385.648 290.649 385.648 292.735Z" fill="#FF00FD"/>
<path d="M147.246 264.264C135.045 264.264 124.512 268.644 117.212 275.945H177.281C169.981 268.644 159.448 264.264 147.246 264.264Z" fill="#03FCFE"/>
<path d="M182.913 275.945H122.843C116.899 281.889 113.144 289.815 112.414 298.992H133.376C134.732 288.251 142.762 281.368 152.878 281.368C162.994 281.368 172.588 289.606 172.588 302.225C172.588 314.844 163.932 323.083 152.878 323.083C141.824 323.083 136.088 317.347 133.793 308.065H112.623C115.439 326.941 131.603 340.186 152.774 340.186C173.944 340.186 193.446 324.125 193.446 302.225C193.446 280.325 189.483 282.619 182.913 275.945Z" fill="#03FCFE"/>
<path d="M136.296 302.225C136.296 301.078 136.296 300.035 136.505 298.992H115.543C115.543 300.035 115.439 301.182 115.439 302.225C115.439 304.207 115.543 306.188 115.856 308.065H137.026C136.609 306.188 136.296 304.311 136.296 302.225Z" fill="#03FCFE"/>
<path d="M275.937 265.724H255.497L248.822 281.367H269.263L275.937 265.724Z" fill="#03FCFE"/>
<path d="M235.265 313.279L219.726 275.945H197.409L216.91 321.414H252.16L265.613 289.815H245.277L235.265 313.279Z" fill="#03FCFE"/>
<path d="M224.315 338.83H244.651L247.571 332.051H221.395L224.315 338.83Z" fill="#03FCFE"/>
<path d="M218.162 265.724H195.844L200.225 275.945H222.438L218.162 265.724Z" fill="#03FCFE"/>
<path d="M246.215 281.368L242.669 289.815H263.006L266.656 281.368H246.215Z" fill="#03FCFE"/>
<path d="M225.045 332.051H251.221L255.81 321.414H220.561L225.045 332.051Z" fill="#03FCFE"/>
<path d="M280.213 332.051H338.927V322.874H300.758V309.421H333.191V305.249H280.213V332.051Z" fill="#03FCFE"/>
<path d="M337.571 281.68V273.546H280.213V297.636H333.191V293.986H300.758V281.68H337.571Z" fill="#03FCFE"/>
<path d="M342.055 265.724H284.697V273.546H342.055V265.724Z" fill="#03FCFE"/>
<path d="M336.111 332.051H277.397V338.726H336.111V332.051Z" fill="#03FCFE"/>
<path d="M330.897 297.636H277.919V305.249H330.897V297.636Z" fill="#03FCFE"/>
<path d="M395.659 338.83H417.768L411.407 329.548H389.298L395.659 338.83Z" fill="#03FCFE"/>
<path d="M415.891 297.636H394.408C392.739 301.286 388.776 303.372 382.519 303.372H371.047V297.636H350.398V329.548H371.047V319.328H382.31L384.709 322.874H406.818L401.916 315.782C409.529 312.132 414.431 305.875 415.787 297.636H415.891Z" fill="#03FCFE"/>
<path d="M371.047 281.993H382.519C388.463 281.993 392.426 283.975 394.199 287.416H415.787C414.952 283.036 413.18 279.177 410.468 275.945H350.294V287.416H370.943V281.993H371.047Z" fill="#03FCFE"/>
<path d="M369.17 329.548H348.521V338.83H369.17V329.548Z" fill="#03FCFE"/>
<path d="M386.065 265.724H352.693V275.945H412.867C407.339 269.374 398.058 265.724 386.169 265.724H386.065Z" fill="#03FCFE"/>
<path d="M393.991 329.548H416.1L411.511 322.978H389.506L393.991 329.548Z" fill="#03FCFE"/>
<path d="M368.544 287.416H347.896V297.636H368.544V287.416Z" fill="#03FCFE"/>
<path d="M392.948 292.735C392.948 294.612 392.635 296.176 391.905 297.636H413.388C413.597 296.072 413.805 294.404 413.805 292.735C413.805 291.066 413.597 289.085 413.388 287.416H391.801C392.531 288.876 392.948 290.649 392.948 292.735Z" fill="#03FCFE"/>
<g filter="url(#filter0_d_42_1180)">
<path d="M143.492 170.197C131.291 170.197 120.966 174.682 114.083 182.19H173.005C166.227 174.473 156.007 170.197 143.492 170.197Z" fill="white"/>
<path d="M228.904 171.553H209.715L207.003 177.706H231.615L228.904 171.553Z" fill="white"/>
<path d="M229.008 177.706H204.396L199.912 187.926H233.492L229.008 177.706Z" fill="white"/>
<path d="M232.345 211.912H251.43L247.362 202.839H228.695L232.345 211.912Z" fill="white"/>
<path d="M179.367 240.383H199.182L201.997 233.5H182.391L179.367 240.383Z" fill="white"/>
<path d="M246.737 211.912H227.756L227.965 212.642H210.34L219.205 190.638L224.106 202.839H242.774L236.099 187.926H202.519L184.477 228.807H203.875L204.605 227.034H233.701L239.124 240.383H259.355L246.737 211.912Z" fill="white"/>
<path d="M184.477 233.5H204.083L205.96 228.807H186.563L184.477 233.5Z" fill="white"/>
<path d="M175.3 204.508H158.092V208.783H175.3V204.508Z" fill="white"/>
<path d="M173.005 208.783H155.798V215.979H173.005V208.783Z" fill="white"/>
<path d="M284.176 171.553H268.116V181.356H290.12L284.176 171.553Z" fill="white"/>
<path d="M326.934 240.383H344.871L344.767 226.2H326.829L326.934 240.383Z" fill="white"/>
<path d="M323.597 221.507V226.2H341.534L341.43 221.507H323.597Z" fill="white"/>
<path d="M282.82 233.291H264.883V240.382H282.82V233.291Z" fill="white"/>
<path d="M279.379 228.077H261.441V233.291H279.379V228.077Z" fill="white"/>
<path d="M416.412 171.553H362.496V179.27H416.412V171.553Z" fill="white"/>
<path d="M413.805 225.365H377.826V212.746H408.382V198.25H377.826V186.57H412.554V179.27H358.637V228.807H413.805V225.365Z" fill="white"/>
<path d="M413.91 236.315H358.637V240.278H413.91V236.315Z" fill="white"/>
<path d="M410.885 228.807H355.613V236.42H410.885V228.807Z" fill="white"/>
<path d="M305.033 211.286L286.783 181.356H264.883V228.077H282.82V204.925L300.445 233.604H309.101L326.725 203.882L326.829 221.507H344.767L344.663 195.539H314.419L305.033 211.286Z" fill="white"/>
<path d="M344.663 171.553H328.602L318.278 188.969H344.663V171.553Z" fill="white"/>
<path d="M320.259 188.969L316.401 195.539H346.644V188.969H320.259Z" fill="white"/>
<path d="M158.092 223.384C154.651 224.948 151.209 225.678 147.559 225.678C143.909 225.678 141.406 225.052 138.799 223.905H113.04C119.297 234.96 131.499 241.843 146.412 241.843C161.325 241.843 167.374 238.818 175.3 233.082V215.979H158.092V223.384Z" fill="white"/>
<path d="M128.058 205.968C128.058 194.079 135.879 186.362 147.664 186.362C159.448 186.362 159.657 188.865 164.35 193.975L176.76 182.816C176.551 182.607 176.343 182.399 176.238 182.19H117.316C111.684 188.343 108.452 196.582 108.452 205.968C108.452 215.354 108.869 212.851 109.807 215.979H130.456C128.996 213.164 128.162 209.722 128.162 205.968H128.058Z" fill="white"/>
<path d="M133.689 215.979H113.04C113.77 218.795 114.917 221.402 116.273 223.801H142.032C138.382 222.132 135.566 219.421 133.689 215.979Z" fill="white"/>
<path d="M144.118 264.264C131.916 264.264 121.383 268.644 114.083 275.945H174.153C166.853 268.644 156.32 264.264 144.118 264.264Z" fill="white"/>
<path d="M179.784 275.945H119.715C113.77 281.889 110.016 289.815 109.286 298.992H130.248C131.603 288.251 139.633 281.368 149.749 281.368C159.865 281.368 169.46 289.606 169.46 302.225C169.46 314.844 160.804 323.083 149.749 323.083C138.695 323.083 132.959 317.347 130.665 308.065H109.494C112.31 326.941 128.475 340.186 149.645 340.186C170.815 340.186 190.317 324.125 190.317 302.225C190.317 280.325 186.354 282.619 179.784 275.945Z" fill="white"/>
<path d="M133.168 302.225C133.168 301.078 133.168 300.035 133.376 298.992H112.414C112.414 300.035 112.31 301.182 112.31 302.225C112.31 304.207 112.414 306.188 112.727 308.065H133.898C133.481 306.188 133.168 304.311 133.168 302.225Z" fill="white"/>
<path d="M272.809 265.724H252.368L245.694 281.367H266.134L272.809 265.724Z" fill="white"/>
<path d="M232.136 313.279L216.598 275.945H194.28L213.782 321.414H249.031L262.484 289.815H242.148L232.136 313.279Z" fill="white"/>
<path d="M221.186 338.83H241.522L244.442 332.051H218.266L221.186 338.83Z" fill="white"/>
<path d="M215.033 265.724H192.716L197.096 275.945H219.309L215.033 265.724Z" fill="white"/>
<path d="M243.087 281.368L239.541 289.815H259.877L263.527 281.368H243.087Z" fill="white"/>
<path d="M221.916 332.051H248.092L252.681 321.414H217.432L221.916 332.051Z" fill="white"/>
<path d="M277.084 332.051H335.798V322.874H297.629V309.421H330.062V305.249H277.084V332.051Z" fill="white"/>
<path d="M334.442 281.68V273.546H277.084V297.636H330.062V293.986H297.629V281.68H334.442Z" fill="white"/>
<path d="M338.927 265.724H281.569V273.546H338.927V265.724Z" fill="white"/>
<path d="M332.982 332.051H274.269V338.726H332.982V332.051Z" fill="white"/>
<path d="M327.768 297.636H274.79V305.249H327.768V297.636Z" fill="white"/>
<path d="M392.531 338.83H414.64L408.278 329.548H386.169L392.531 338.83Z" fill="white"/>
<path d="M412.762 297.636H391.279C389.61 301.286 385.648 303.372 379.39 303.372H367.919V297.636H347.27V329.548H367.919V319.328H379.182L381.58 322.874H403.689L398.788 315.782C406.401 312.132 411.302 305.875 412.658 297.636H412.762Z" fill="white"/>
<path d="M367.919 281.993H379.39C385.335 281.993 389.298 283.975 391.071 287.416H412.658C411.824 283.036 410.051 279.177 407.339 275.945H347.166V287.416H367.814V281.993H367.919Z" fill="white"/>
<path d="M366.042 329.548H345.393V338.83H366.042V329.548Z" fill="white"/>
<path d="M382.936 265.724H349.564V275.945H409.738C404.211 269.374 394.929 265.724 383.04 265.724H382.936Z" fill="white"/>
<path d="M390.862 329.548H412.971L408.382 322.978H386.378L390.862 329.548Z" fill="white"/>
<path d="M365.416 287.416H344.767V297.636H365.416V287.416Z" fill="white"/>
<path d="M389.819 292.735C389.819 294.612 389.506 296.176 388.776 297.636H410.259C410.468 296.072 410.677 294.404 410.677 292.735C410.677 291.066 410.468 289.085 410.259 287.416H388.672C389.402 288.876 389.819 290.649 389.819 292.735Z" fill="white"/>
</g>
<path d="M419.437 412.874L389.923 391.391L423.295 376.582L419.437 412.874ZM396.181 392.017L416.934 407.138L419.645 381.588L396.181 392.017Z" fill="#FF00FD"/>
<path d="M422.774 415.377L393.261 393.894L426.633 379.085L422.774 415.377ZM399.518 394.519L420.271 409.641L422.983 384.091L399.518 394.519Z" fill="#03FCFE"/>
<path d="M421.105 414.126L391.592 392.642L424.964 377.833L421.105 414.126ZM397.849 393.268L418.602 408.39L421.314 382.839L397.849 393.268Z" fill="white"/>
<path d="M142.866 140.579L117.525 144.334L126.91 120.556L142.762 140.579H142.866ZM120.966 141.622L138.799 139.015L127.64 124.936L121.07 141.622H120.966Z" fill="#FF00FD"/>
<path d="M145.786 140.162L120.445 143.917L129.83 120.139L145.682 140.162H145.786ZM123.886 141.205L141.719 138.598L130.56 124.519L123.99 141.205H123.886Z" fill="#03FCFE"/>
<path d="M144.326 140.371L118.985 144.125L128.37 120.348L144.222 140.371H144.326ZM122.426 141.414L140.259 138.807L129.1 124.728L122.53 141.414H122.426Z" fill="white"/>
<path d="M206.795 398.274C198.347 398.274 191.464 391.391 191.464 382.943C191.464 374.496 198.347 367.613 206.795 367.613C215.242 367.613 222.125 374.496 222.125 382.943C222.125 391.391 215.242 398.274 206.795 398.274ZM206.795 370.742C200.016 370.742 194.593 376.165 194.593 382.943C194.593 389.722 200.016 395.145 206.795 395.145C213.573 395.145 218.996 389.722 218.996 382.943C218.996 376.165 213.573 370.742 206.795 370.742Z" fill="#03FCFE"/>
<path d="M202.936 398.274C194.489 398.274 187.606 391.391 187.606 382.943C187.606 374.496 194.489 367.613 202.936 367.613C211.383 367.613 218.266 374.496 218.266 382.943C218.266 391.391 211.383 398.274 202.936 398.274ZM202.936 370.742C196.157 370.742 190.734 376.165 190.734 382.943C190.734 389.722 196.157 395.145 202.936 395.145C209.715 395.145 215.138 389.722 215.138 382.943C215.138 376.165 209.715 370.742 202.936 370.742Z" fill="#FF00FD"/>
<path d="M204.709 398.274C196.262 398.274 189.379 391.391 189.379 382.943C189.379 374.496 196.262 367.613 204.709 367.613C213.156 367.613 220.039 374.496 220.039 382.943C220.039 391.391 213.156 398.274 204.709 398.274ZM204.709 370.742C197.93 370.742 192.507 376.165 192.507 382.943C192.507 389.722 197.93 395.145 204.709 395.145C211.488 395.145 216.91 389.722 216.91 382.943C216.91 376.165 211.488 370.742 204.709 370.742Z" fill="white"/>
<path d="M458.44 319.328C453.434 319.328 449.367 315.261 449.367 310.255C449.367 305.249 453.434 301.182 458.44 301.182C463.446 301.182 467.513 305.249 467.513 310.255C467.513 315.261 463.446 319.328 458.44 319.328ZM458.44 302.955C454.477 302.955 451.14 306.188 451.14 310.255C451.14 314.322 454.373 317.555 458.44 317.555C462.507 317.555 465.74 314.322 465.74 310.255C465.74 306.188 462.507 302.955 458.44 302.955Z" fill="#03FCFE"/>
<path d="M456.146 319.328C451.14 319.328 447.073 315.261 447.073 310.255C447.073 305.249 451.14 301.182 456.146 301.182C461.152 301.182 465.219 305.249 465.219 310.255C465.219 315.261 461.152 319.328 456.146 319.328ZM456.146 302.955C452.183 302.955 448.846 306.188 448.846 310.255C448.846 314.322 452.079 317.555 456.146 317.555C460.213 317.555 463.446 314.322 463.446 310.255C463.446 306.188 460.213 302.955 456.146 302.955Z" fill="#FF00FD"/>
<path d="M457.189 319.328C452.183 319.328 448.116 315.261 448.116 310.255C448.116 305.249 452.183 301.182 457.189 301.182C462.195 301.182 466.262 305.249 466.262 310.255C466.262 315.261 462.195 319.328 457.189 319.328ZM457.189 302.955C453.226 302.955 449.889 306.188 449.889 310.255C449.889 314.322 453.122 317.555 457.189 317.555C461.256 317.555 464.489 314.322 464.489 310.255C464.489 306.188 461.256 302.955 457.189 302.955Z" fill="white"/>
<path d="M449.263 170.197C444.257 170.197 440.19 166.13 440.19 161.124C440.19 156.118 444.257 152.051 449.263 152.051C454.269 152.051 458.336 156.118 458.336 161.124C458.336 166.13 454.269 170.197 449.263 170.197ZM449.263 153.824C445.3 153.824 441.963 157.057 441.963 161.124C441.963 165.191 445.196 168.424 449.263 168.424C453.33 168.424 456.563 165.191 456.563 161.124C456.563 157.057 453.33 153.824 449.263 153.824Z" fill="#03FCFE"/>
<path d="M446.969 170.197C441.963 170.197 437.896 166.13 437.896 161.124C437.896 156.118 441.963 152.051 446.969 152.051C451.974 152.051 456.042 156.118 456.042 161.124C456.042 166.13 451.974 170.197 446.969 170.197ZM446.969 153.824C443.006 153.824 439.668 157.057 439.668 161.124C439.668 165.191 442.901 168.424 446.969 168.424C451.036 168.424 454.269 165.191 454.269 161.124C454.269 157.057 451.036 153.824 446.969 153.824Z" fill="#FF00FD"/>
<path d="M448.011 170.197C443.006 170.197 438.938 166.13 438.938 161.124C438.938 156.118 443.006 152.051 448.011 152.051C453.017 152.051 457.085 156.118 457.085 161.124C457.085 166.13 453.017 170.197 448.011 170.197ZM448.011 153.824C444.049 153.824 440.711 157.057 440.711 161.124C440.711 165.191 443.944 168.424 448.011 168.424C452.079 168.424 455.312 165.191 455.312 161.124C455.312 157.057 452.079 153.824 448.011 153.824Z" fill="white"/>
<path d="M273.539 146.941L266.76 140.162L273.539 133.279L271.349 131.089L264.466 137.868L257.687 131.089L255.393 133.279L262.276 140.162L255.393 146.941L257.687 149.235L264.466 142.352L271.349 149.235L273.539 146.941Z" fill="#03FCFE"/>
<path d="M269.367 146.941L262.588 140.162L269.367 133.279L267.177 131.089L260.294 137.868L253.515 131.089L251.221 133.279L258.104 140.162L251.221 146.941L253.515 149.235L260.294 142.352L267.177 149.235L269.367 146.941Z" fill="#FF00FD"/>
<path d="M271.453 146.941L264.674 140.162L271.453 133.279L269.263 131.089L262.38 137.868L255.601 131.089L253.307 133.279L260.19 140.162L253.307 146.941L255.601 149.235L262.38 142.352L269.263 149.235L271.453 146.941Z" fill="white"/>
<path d="M130.143 398.587L121.07 395.249L124.408 386.176L121.487 385.134L118.15 394.207L108.973 390.869L107.93 393.789L117.003 397.127L113.666 406.2L116.586 407.347L119.923 398.169L129.1 401.507L130.143 398.587Z" fill="#03FCFE"/>
<path d="M126.389 400.359L117.212 397.022L120.653 387.949L117.629 386.802L114.292 395.979L105.219 392.538L104.176 395.562L113.249 398.9L109.912 407.972L112.832 409.015L116.169 399.942L125.242 403.28L126.389 400.359Z" fill="#FF00FD"/>
<path d="M128.266 399.525L119.193 396.188L122.53 387.011L119.61 385.968L116.169 395.041L107.096 391.704L106.053 394.624L115.126 397.961L111.789 407.138L114.709 408.181L118.046 399.108L127.119 402.445L128.266 399.525Z" fill="white"/>
<path d="M79.2511 351.032L73.6195 348.946L75.7053 343.314L73.8281 342.689L71.7424 348.32L66.2151 346.234L65.4851 348.007L71.1166 350.093L69.0309 355.725L70.9081 356.35L72.8895 350.719L78.5211 352.804L79.2511 351.032Z" fill="#03FCFE"/>
<path d="M76.8525 352.074L71.2209 349.989L73.3067 344.461L71.5338 343.731L69.448 349.363L63.8165 347.277L63.1908 349.154L68.8223 351.136L66.7366 356.767L68.5095 357.497L70.5952 351.866L76.2267 353.952L76.8525 352.074Z" fill="#FF00FD"/>
<path d="M77.9996 351.553L72.4724 349.467L74.4538 343.836L72.681 343.21L70.5952 348.842L64.9637 346.756L64.338 348.529L69.9695 350.614L67.8837 356.246L69.6566 356.976L71.7424 351.344L77.3739 353.326L77.9996 351.553Z" fill="white"/>
<path d="M71.9173 230.18L49.9581 245.728L51.766 248.282L73.7252 232.734L71.9173 230.18Z" fill="#FF00FD"/>
<path d="M70.0258 227.573L48.0667 243.121L49.8746 245.674L71.8337 230.126L70.0258 227.573Z" fill="#03FCFE"/>
<path d="M70.9935 228.782L49.0344 244.33L50.8423 246.883L72.8014 231.335L70.9935 228.782Z" fill="white"/>
<path d="M441.698 255.372L440.087 258.054L463.15 271.912L464.761 269.23L441.698 255.372Z" fill="#FF00FD"/>
<path d="M443.466 252.65L441.855 255.331L464.918 269.189L466.529 266.507L443.466 252.65Z" fill="#03FCFE"/>
<path d="M442.634 253.959L441.023 256.641L464.086 270.498L465.698 267.817L442.634 253.959Z" fill="white"/>
<path d="M152.854 103.473L151.243 106.155L174.306 120.013L175.917 117.331L152.854 103.473Z" fill="#FF00FD"/>
<path d="M154.533 100.593L152.922 103.274L175.985 117.132L177.596 114.45L154.533 100.593Z" fill="#03FCFE"/>
<path d="M153.701 102.006L152.09 104.688L175.153 118.545L176.764 115.864L153.701 102.006Z" fill="white"/>
<path d="M361.766 130.881L344.037 119.201L355.717 101.472L373.446 113.152L361.766 130.881ZM347.166 118.575L361.14 127.752L370.317 113.778L356.343 104.6L347.166 118.575Z" fill="#FF00FD"/>
<path d="M363.852 132.237L346.123 120.556L357.803 102.827L375.532 114.508L363.852 132.237ZM349.251 119.931L363.226 129.108L372.403 115.133L358.429 105.956L349.251 119.931Z" fill="#03FCFE"/>
<path d="M362.913 131.611L345.184 119.931L356.864 102.202L374.593 113.882L362.913 131.611ZM348.313 119.305L362.287 128.482L371.465 114.508L357.49 105.33L348.313 119.305Z" fill="white"/>
<path d="M344.975 393.998L317.444 384.403L327.038 356.872L354.57 366.466L344.975 393.998ZM321.511 382.526L343.098 390.035L350.607 368.448L329.02 360.939L321.511 382.526Z" fill="#FF00FD"/>
<path d="M348.208 395.145L320.677 385.551L330.271 358.019L357.803 367.613L348.208 395.145ZM324.744 383.673L346.331 391.182L353.84 369.595L332.252 362.086L324.744 383.673Z" fill="#03FCFE"/>
<path d="M346.644 394.624L319.112 385.029L328.707 357.497L356.239 367.092L346.644 394.624ZM323.179 383.152L344.767 390.661L352.276 369.073L330.688 361.565L323.179 383.152Z" fill="white"/>
<defs>
<filter id="filter0_d_42_1180" x="102.194" y="163.94" width="320.475" height="182.503" filterUnits="userSpaceOnUse" color-interpolation-filters="sRGB">
<feFlood flood-opacity="0" result="BackgroundImageFix"/>
<feColorMatrix in="SourceAlpha" type="matrix" values="0 0 0 0 0 0 0 0 0 0 0 0 0 0 0 0 0 0 127 0" result="hardAlpha"/>
<feOffset/>
<feGaussianBlur stdDeviation="3.12862"/>
<feColorMatrix type="matrix" values="0 0 0 0 1 0 0 0 0 1 0 0 0 0 1 0 0 0 0.8 0"/>
<feBlend mode="normal" in2="BackgroundImageFix" result="effect1_dropShadow_42_1180"/>
<feBlend mode="normal" in="SourceGraphic" in2="effect1_dropShadow_42_1180" result="shape"/>
</filter>
<radialGradient id="paint0_radial_42_1180" cx="0" cy="0" r="1" gradientUnits="userSpaceOnUse" gradientTransform="translate(559.131 251.719) rotate(-5.4) scale(279.011 239.152)">
<stop stop-color="#B53C95"/>
<stop offset="0.7" stop-color="#38122E" stop-opacity="0.3"/>
<stop offset="1" stop-opacity="0"/>
</radialGradient>
<radialGradient id="paint1_radial_42_1180" cx="0" cy="0" r="1" gradientUnits="userSpaceOnUse" gradientTransform="translate(-4.00694 52.4769) rotate(-5.4) scale(279.011 239.152)">
<stop stop-color="#2C1FFF"/>
<stop offset="0.2" stop-color="#2218C6" stop-opacity="0.8"/>
<stop offset="0.8" stop-color="#090638" stop-opacity="0.2"/>
<stop offset="1" stop-opacity="0"/>
</radialGradient>
<radialGradient id="paint2_radial_42_1180" cx="0" cy="0" r="1" gradientUnits="userSpaceOnUse" gradientTransform="translate(633.525 484.088) rotate(-5.4) scale(279.011 239.152)">
<stop stop-color="#272063"/>
<stop offset="0.4" stop-color="#161238" stop-opacity="0.6"/>
<stop offset="1" stop-opacity="0"/>
</radialGradient>
<radialGradient id="paint3_radial_42_1180" cx="0" cy="0" r="1" gradientUnits="userSpaceOnUse" gradientTransform="translate(465.01 219.629) scale(22.839 22.839)">
<stop stop-color="#0099CB" stop-opacity="0.8"/>
<stop offset="0.1" stop-color="#00759C" stop-opacity="0.7"/>
<stop offset="0.2" stop-color="#005672" stop-opacity="0.5"/>
<stop offset="0.3" stop-color="#003B4E" stop-opacity="0.3"/>
<stop offset="0.4" stop-color="#002532" stop-opacity="0.2"/>
<stop offset="0.6" stop-color="#00151B" stop-opacity="0.1"/>
<stop offset="0.7" stop-color="#00090C" stop-opacity="0"/>
<stop offset="0.8" stop-color="#000202" stop-opacity="0"/>
<stop offset="1" stop-opacity="0"/>
</radialGradient>
<radialGradient id="paint4_radial_42_1180" cx="0" cy="0" r="1" gradientUnits="userSpaceOnUse" gradientTransform="translate(86.7598 349.571) scale(22.839 22.839)">
<stop stop-color="#9C848E" stop-opacity="0.6"/>
<stop offset="0.1" stop-color="#77646C" stop-opacity="0.5"/>
<stop offset="0.2" stop-color="#56494E" stop-opacity="0.3"/>
<stop offset="0.3" stop-color="#251F22" stop-opacity="0.2"/>
<stop offset="0.4" stop-color="#141112" stop-opacity="0"/>
<stop offset="0.5" stop-color="#080707" stop-opacity="0"/>
<stop offset="0.6" stop-color="#010101" stop-opacity="0"/>
<stop offset="1" stop-opacity="0"/>
</radialGradient>
<radialGradient id="paint5_radial_42_1180" cx="0" cy="0" r="1" gradientUnits="userSpaceOnUse" gradientTransform="translate(168.521 435.087) scale(22.839 22.8389)">
<stop stop-color="#9C848E" stop-opacity="0.6"/>
<stop offset="0.1" stop-color="#77646C" stop-opacity="0.5"/>
<stop offset="0.2" stop-color="#56494E" stop-opacity="0.3"/>
<stop offset="0.3" stop-color="#251F22" stop-opacity="0.2"/>
<stop offset="0.4" stop-color="#141112" stop-opacity="0"/>
<stop offset="0.5" stop-color="#080707" stop-opacity="0"/>
<stop offset="0.6" stop-color="#010101" stop-opacity="0"/>
<stop offset="1" stop-opacity="0"/>
</radialGradient>
<radialGradient id="paint6_radial_42_1180" cx="0" cy="0" r="1" gradientUnits="userSpaceOnUse" gradientTransform="translate(343.933 108.563) scale(22.839 22.839)">
<stop stop-color="#9C848E" stop-opacity="0.6"/>
<stop offset="0.1" stop-color="#77646C" stop-opacity="0.5"/>
<stop offset="0.2" stop-color="#56494E" stop-opacity="0.3"/>
<stop offset="0.3" stop-color="#251F22" stop-opacity="0.2"/>
<stop offset="0.4" stop-color="#141112" stop-opacity="0"/>
<stop offset="0.5" stop-color="#080707" stop-opacity="0"/>
<stop offset="0.6" stop-color="#010101" stop-opacity="0"/>
<stop offset="1" stop-opacity="0"/>
</radialGradient>
<radialGradient id="paint7_radial_42_1180" cx="0" cy="0" r="1" gradientUnits="userSpaceOnUse" gradientTransform="translate(183.226 122.016) scale(22.839 22.839)">
<stop stop-color="#9C848E" stop-opacity="0.6"/>
<stop offset="0.1" stop-color="#77646C" stop-opacity="0.5"/>
<stop offset="0.2" stop-color="#56494E" stop-opacity="0.3"/>
<stop offset="0.3" stop-color="#251F22" stop-opacity="0.2"/>
<stop offset="0.4" stop-color="#141112" stop-opacity="0"/>
<stop offset="0.5" stop-color="#080707" stop-opacity="0"/>
<stop offset="0.6" stop-color="#010101" stop-opacity="0"/>
<stop offset="1" stop-opacity="0"/>
</radialGradient>
<radialGradient id="paint8_radial_42_1180" cx="0" cy="0" r="1" gradientUnits="userSpaceOnUse" gradientTransform="translate(115.126 134.218) scale(22.839 22.839)">
<stop stop-color="#9C848E" stop-opacity="0.6"/>
<stop offset="0.1" stop-color="#77646C" stop-opacity="0.5"/>
<stop offset="0.2" stop-color="#56494E" stop-opacity="0.3"/>
<stop offset="0.3" stop-color="#251F22" stop-opacity="0.2"/>
<stop offset="0.4" stop-color="#141112" stop-opacity="0"/>
<stop offset="0.5" stop-color="#080707" stop-opacity="0"/>
<stop offset="0.6" stop-color="#010101" stop-opacity="0"/>
<stop offset="1" stop-opacity="0"/>
</radialGradient>
<radialGradient id="paint9_radial_42_1180" cx="0" cy="0" r="1" gradientUnits="userSpaceOnUse" gradientTransform="translate(380.433 413.291) scale(22.839 22.8389)">
<stop stop-color="#9C9C9C" stop-opacity="0.6"/>
<stop offset="0.1" stop-color="#777777" stop-opacity="0.5"/>
<stop offset="0.2" stop-color="#565656" stop-opacity="0.3"/>
<stop offset="0.3" stop-color="#252525" stop-opacity="0.1"/>
<stop offset="0.4" stop-color="#141414" stop-opacity="0"/>
<stop offset="0.5" stop-color="#080808" stop-opacity="0"/>
<stop offset="0.6" stop-color="#010101" stop-opacity="0"/>
<stop offset="1" stop-opacity="0"/>
</radialGradient>
<radialGradient id="paint10_radial_42_1180" cx="0" cy="0" r="1" gradientUnits="userSpaceOnUse" gradientTransform="translate(66.528 466.269) scale(22.839 22.8389)">
<stop stop-color="#9C9C9C" stop-opacity="0.6"/>
<stop offset="0.1" stop-color="#777777" stop-opacity="0.5"/>
<stop offset="0.2" stop-color="#565656" stop-opacity="0.3"/>
<stop offset="0.3" stop-color="#252525" stop-opacity="0.1"/>
<stop offset="0.4" stop-color="#141414" stop-opacity="0"/>
<stop offset="0.5" stop-color="#080808" stop-opacity="0"/>
<stop offset="0.6" stop-color="#010101" stop-opacity="0"/>
<stop offset="1" stop-opacity="0"/>
</radialGradient>
<radialGradient id="paint11_radial_42_1180" cx="0" cy="0" r="1" gradientUnits="userSpaceOnUse" gradientTransform="translate(438.938 136.929) scale(15.6431)">
<stop stop-color="#94BACB" stop-opacity="0.8"/>
<stop offset="0.2" stop-color="#728E9C" stop-opacity="0.6"/>
<stop offset="0.3" stop-color="#536872" stop-opacity="0.5"/>
<stop offset="0.4" stop-color="#39484E" stop-opacity="0.3"/>
<stop offset="0.5" stop-color="#242D32" stop-opacity="0.2"/>
<stop offset="0.6" stop-color="#14191B" stop-opacity="0.1"/>
<stop offset="0.7" stop-color="#080B0C" stop-opacity="0"/>
<stop offset="0.8" stop-color="#020202" stop-opacity="0"/>
<stop offset="1" stop-opacity="0"/>
</radialGradient>
<radialGradient id="paint12_radial_42_1180" cx="0" cy="0" r="1" gradientUnits="userSpaceOnUse" gradientTransform="translate(443.631 473.986) scale(15.6431)">
<stop stop-color="#94BACB" stop-opacity="0.8"/>
<stop offset="0.2" stop-color="#728E9C" stop-opacity="0.6"/>
<stop offset="0.3" stop-color="#536872" stop-opacity="0.5"/>
<stop offset="0.4" stop-color="#39484E" stop-opacity="0.3"/>
<stop offset="0.5" stop-color="#242D32" stop-opacity="0.2"/>
<stop offset="0.6" stop-color="#14191B" stop-opacity="0.1"/>
<stop offset="0.7" stop-color="#080B0C" stop-opacity="0"/>
<stop offset="0.8" stop-color="#020202" stop-opacity="0"/>
<stop offset="1" stop-opacity="0"/>
</radialGradient>
<radialGradient id="paint13_radial_42_1180" cx="0" cy="0" r="1" gradientUnits="userSpaceOnUse" gradientTransform="translate(198.452 69.4555) scale(15.6431)">
<stop stop-color="#94BACB" stop-opacity="0.8"/>
<stop offset="0.2" stop-color="#728E9C" stop-opacity="0.6"/>
<stop offset="0.3" stop-color="#536872" stop-opacity="0.5"/>
<stop offset="0.4" stop-color="#39484E" stop-opacity="0.3"/>
<stop offset="0.5" stop-color="#242D32" stop-opacity="0.2"/>
<stop offset="0.6" stop-color="#14191B" stop-opacity="0.1"/>
<stop offset="0.7" stop-color="#080B0C" stop-opacity="0"/>
<stop offset="0.8" stop-color="#020202" stop-opacity="0"/>
<stop offset="1" stop-opacity="0"/>
</radialGradient>
<radialGradient id="paint14_radial_42_1180" cx="0" cy="0" r="1" gradientUnits="userSpaceOnUse" gradientTransform="translate(77.4782 85.8286) scale(15.6431)">
<stop stop-color="#94BACB" stop-opacity="0.8"/>
<stop offset="0.2" stop-color="#728E9C" stop-opacity="0.6"/>
<stop offset="0.3" stop-color="#536872" stop-opacity="0.5"/>
<stop offset="0.4" stop-color="#39484E" stop-opacity="0.3"/>
<stop offset="0.5" stop-color="#242D32" stop-opacity="0.2"/>
<stop offset="0.6" stop-color="#14191B" stop-opacity="0.1"/>
<stop offset="0.7" stop-color="#080B0C" stop-opacity="0"/>
<stop offset="0.8" stop-color="#020202" stop-opacity="0"/>
<stop offset="1" stop-opacity="0"/>
</radialGradient>
<radialGradient id="paint15_radial_42_1180" cx="0" cy="0" r="1" gradientUnits="userSpaceOnUse" gradientTransform="translate(468.556 71.8541) scale(15.6431 15.6431)">
<stop stop-color="#94BACB" stop-opacity="0.8"/>
<stop offset="0.2" stop-color="#728E9C" stop-opacity="0.6"/>
<stop offset="0.3" stop-color="#536872" stop-opacity="0.5"/>
<stop offset="0.4" stop-color="#39484E" stop-opacity="0.3"/>
<stop offset="0.5" stop-color="#242D32" stop-opacity="0.2"/>
<stop offset="0.6" stop-color="#14191B" stop-opacity="0.1"/>
<stop offset="0.7" stop-color="#080B0C" stop-opacity="0"/>
<stop offset="0.8" stop-color="#020202" stop-opacity="0"/>
<stop offset="1" stop-opacity="0"/>
</radialGradient>
<radialGradient id="paint16_radial_42_1180" cx="0" cy="0" r="1" gradientUnits="userSpaceOnUse" gradientTransform="translate(272.6 88.9572) scale(22.839 22.839)">
<stop stop-color="#94BACB" stop-opacity="0.8"/>
<stop offset="0.2" stop-color="#728E9C" stop-opacity="0.6"/>
<stop offset="0.3" stop-color="#536872" stop-opacity="0.5"/>
<stop offset="0.4" stop-color="#39484E" stop-opacity="0.3"/>
<stop offset="0.5" stop-color="#242D32" stop-opacity="0.2"/>
<stop offset="0.6" stop-color="#14191B" stop-opacity="0.1"/>
<stop offset="0.7" stop-color="#080B0C" stop-opacity="0"/>
<stop offset="0.8" stop-color="#020202" stop-opacity="0"/>
<stop offset="1" stop-opacity="0"/>
</radialGradient>
<radialGradient id="paint17_radial_42_1180" cx="0" cy="0" r="1" gradientUnits="userSpaceOnUse" gradientTransform="translate(461.777 357.289) scale(22.839 22.8389)">
<stop stop-color="#0099CB" stop-opacity="0.8"/>
<stop offset="0.1" stop-color="#00759C" stop-opacity="0.7"/>
<stop offset="0.2" stop-color="#005672" stop-opacity="0.5"/>
<stop offset="0.3" stop-color="#003B4E" stop-opacity="0.3"/>
<stop offset="0.4" stop-color="#002532" stop-opacity="0.2"/>
<stop offset="0.6" stop-color="#00151B" stop-opacity="0.1"/>
<stop offset="0.7" stop-color="#00090C" stop-opacity="0"/>
<stop offset="0.8" stop-color="#000202" stop-opacity="0"/>
<stop offset="1" stop-opacity="0"/>
</radialGradient>
<radialGradient id="paint18_radial_42_1180" cx="0" cy="0" r="1" gradientUnits="userSpaceOnUse" gradientTransform="translate(298.255 392.017) scale(12.7231 12.7231)">
<stop stop-color="#0099CB" stop-opacity="0.8"/>
<stop offset="0.1" stop-color="#00759C" stop-opacity="0.7"/>
<stop offset="0.2" stop-color="#005672" stop-opacity="0.5"/>
<stop offset="0.3" stop-color="#003B4E" stop-opacity="0.3"/>
<stop offset="0.4" stop-color="#002532" stop-opacity="0.2"/>
<stop offset="0.6" stop-color="#00151B" stop-opacity="0.1"/>
<stop offset="0.7" stop-color="#00090C" stop-opacity="0"/>
<stop offset="0.8" stop-color="#000202" stop-opacity="0"/>
<stop offset="1" stop-opacity="0"/>
</radialGradient>
<radialGradient id="paint19_radial_42_1180" cx="0" cy="0" r="1" gradientUnits="userSpaceOnUse" gradientTransform="translate(71.7424 212.538) scale(22.839 22.8389)">
<stop stop-color="#9C9C9C" stop-opacity="0.6"/>
<stop offset="0.1" stop-color="#777777" stop-opacity="0.5"/>
<stop offset="0.2" stop-color="#565656" stop-opacity="0.3"/>
<stop offset="0.3" stop-color="#252525" stop-opacity="0.1"/>
<stop offset="0.4" stop-color="#141414" stop-opacity="0"/>
<stop offset="0.5" stop-color="#080808" stop-opacity="0"/>
<stop offset="0.6" stop-color="#010101" stop-opacity="0"/>
<stop offset="1" stop-opacity="0"/>
</radialGradient>
<linearGradient id="paint20_linear_42_1180" x1="94.477" y1="228.598" x2="111.163" y2="228.598" gradientUnits="userSpaceOnUse">
<stop stop-color="#FF00FD" stop-opacity="0"/>
<stop offset="1" stop-color="#FF00FD"/>
</linearGradient>
<linearGradient id="paint21_linear_42_1180" x1="92.9127" y1="181.564" x2="112.102" y2="181.564" gradientUnits="userSpaceOnUse">
<stop stop-color="#FF00FD" stop-opacity="0"/>
<stop offset="1" stop-color="#FF00FD"/>
</linearGradient>
<linearGradient id="paint22_linear_42_1180" x1="300.132" y1="178.123" x2="320.989" y2="178.123" gradientUnits="userSpaceOnUse">
<stop stop-color="#FF00FD" stop-opacity="0"/>
<stop offset="1" stop-color="#FF00FD"/>
</linearGradient>
<linearGradient id="paint23_linear_42_1180" x1="184.79" y1="176.35" x2="205.752" y2="176.35" gradientUnits="userSpaceOnUse">
<stop stop-color="#FF00FD" stop-opacity="0"/>
<stop offset="1" stop-color="#FF00FD"/>
</linearGradient>
<linearGradient id="paint24_linear_42_1180" x1="192.716" y1="189.177" x2="178.011" y2="189.177" gradientUnits="userSpaceOnUse">
<stop stop-color="#03FCFE" stop-opacity="0"/>
<stop offset="1" stop-color="#03FCFE"/>
</linearGradient>
<linearGradient id="paint25_linear_42_1180" x1="156.841" y1="307.544" x2="142.241" y2="307.544" gradientUnits="userSpaceOnUse">
<stop stop-color="#03FCFE" stop-opacity="0"/>
<stop offset="1" stop-color="#03FCFE"/>
</linearGradient>
<linearGradient id="paint26_linear_42_1180" x1="270.514" y1="322.353" x2="255.81" y2="322.353" gradientUnits="userSpaceOnUse">
<stop stop-color="#03FCFE" stop-opacity="0"/>
<stop offset="1" stop-color="#03FCFE"/>
</linearGradient>
<linearGradient id="paint27_linear_42_1180" x1="425.485" y1="273.233" x2="410.885" y2="273.233" gradientUnits="userSpaceOnUse">
<stop stop-color="#03FCFE" stop-opacity="0"/>
<stop offset="1" stop-color="#03FCFE"/>
</linearGradient>
<linearGradient id="paint28_linear_42_1180" x1="434.246" y1="327.775" x2="419.541" y2="327.775" gradientUnits="userSpaceOnUse">
<stop stop-color="#03FCFE" stop-opacity="0"/>
<stop offset="1" stop-color="#03FCFE"/>
</linearGradient>
<linearGradient id="paint29_linear_42_1180" x1="433.933" y1="234.647" x2="419.228" y2="234.647" gradientUnits="userSpaceOnUse">
<stop stop-color="#03FCFE" stop-opacity="0"/>
<stop offset="1" stop-color="#03FCFE"/>
</linearGradient>
<linearGradient id="paint30_linear_42_1180" x1="318.069" y1="292.213" x2="338.927" y2="292.213" gradientUnits="userSpaceOnUse">
<stop stop-color="#FF00FD" stop-opacity="0"/>
<stop offset="1" stop-color="#FF00FD"/>
</linearGradient>
<linearGradient id="paint31_linear_42_1180" x1="222.229" y1="277.3" x2="243.087" y2="277.3" gradientUnits="userSpaceOnUse">
<stop stop-color="#FF00FD" stop-opacity="0"/>
<stop offset="1" stop-color="#FF00FD"/>
</linearGradient>
<linearGradient id="paint32_linear_42_1180" x1="248.51" y1="335.388" x2="269.367" y2="335.388" gradientUnits="userSpaceOnUse">
<stop stop-color="#FF00FD" stop-opacity="0"/>
<stop offset="1" stop-color="#FF00FD"/>
</linearGradient>
<linearGradient id="paint33_linear_42_1180" x1="194.384" y1="328.714" x2="215.242" y2="328.714" gradientUnits="userSpaceOnUse">
<stop stop-color="#FF00FD" stop-opacity="0"/>
<stop offset="1" stop-color="#FF00FD"/>
</linearGradient>
<linearGradient id="paint34_linear_42_1180" x1="175.091" y1="270.522" x2="190.317" y2="270.522" gradientUnits="userSpaceOnUse">
<stop stop-color="#FF00FD" stop-opacity="0"/>
<stop offset="1" stop-color="#FF00FD"/>
</linearGradient>
<linearGradient id="paint35_linear_42_1180" x1="88.0112" y1="314.114" x2="103.237" y2="314.114" gradientUnits="userSpaceOnUse">
<stop stop-color="#FF00FD" stop-opacity="0"/>
<stop offset="1" stop-color="#FF00FD"/>
</linearGradient>
<linearGradient id="paint36_linear_42_1180" x1="190.109" y1="298.679" x2="258.313" y2="298.679" gradientUnits="userSpaceOnUse">
<stop stop-color="#D3237F" stop-opacity="0"/>
<stop offset="1" stop-color="#D3237F"/>
</linearGradient>
</defs>
</svg>
